<?xml version="1.0" standalone="no"?>
<!DOCTYPE svg PUBLIC "-//W3C//DTD SVG 20010904//EN"
 "http://www.w3.org/TR/2001/REC-SVG-20010904/DTD/svg10.dtd">
<svg version="1.0" xmlns="http://www.w3.org/2000/svg"
 width="212.000000pt" height="212.000000pt" viewBox="0 0 212.000000 212.000000"
 preserveAspectRatio="xMidYMid meet">
<metadata>
Created by potrace 1.14, written by Peter Selinger 2001-2017
</metadata>
<g transform="translate(0.000000,212.000000) scale(0.100000,-0.100000)"
fill="#000000" stroke="none">
<path d="M278 2083 c-145 -127 -228 -207 -228 -219 0 -12 160 -14 1015 -14
993 0 1015 0 1025 19 13 25 13 207 0 232 -10 19 -31 19 -890 19 l-880 0 -42
-37z"/>
<path d="M30 1066 l0 -586 130 0 130 0 0 185 0 185 88 0 87 -1 125 -181 c68
-99 129 -182 135 -184 6 -3 82 -3 168 -2 l158 3 -145 205 -144 204 48 28 c69
40 117 100 141 181 29 94 24 268 -9 342 -44 96 -120 152 -252 186 -27 7 -171
13 -352 16 l-308 5 0 -586z m596 328 c55 -27 76 -72 72 -151 -7 -124 -56 -154
-264 -161 l-144 -5 0 173 0 173 148 -5 c119 -4 157 -9 188 -24z"/>
<path d="M1230 1065 l0 -585 430 0 430 0 0 120 0 120 -295 0 -295 0 0 115 0
115 260 0 260 0 0 115 0 115 -260 0 -260 0 0 115 0 115 290 0 290 0 0 120 0
120 -425 0 -425 0 0 -585z"/>
<path d="M41 256 c-8 -9 -11 -54 -9 -132 l3 -119 879 -3 c783 -2 882 0 903 13
27 18 244 213 255 229 4 6 8 14 8 19 0 4 -456 7 -1014 7 -854 0 -1015 -2
-1025 -14z"/>
</g>
</svg>
