<?xml version="1.0" encoding="UTF-8"?><svg xmlns="http://www.w3.org/2000/svg" xmlns:xlink="http://www.w3.org/1999/xlink" viewBox="0 0 129.72 151.34"><defs><style>.e{fill:url(#d);}.f{fill:#fff;}</style><linearGradient id="d" x1="0" y1="75.67" x2="129.72" y2="75.67" gradientTransform="matrix(1, 0, 0, 1, 0, 0)" gradientUnits="userSpaceOnUse"><stop offset="0" stop-color="#ff0549"/><stop offset=".98" stop-color="#f60"/></linearGradient></defs><g id="a"/><g id="b"><g id="c"><g><path class="e" d="M122.62,60.1c-1.23-.46-2.55-.64-3.87-.64H32.61c-.1,0-.18-.08-.18-.18v-16.04c0-11.59,6.18-22.29,16.22-28.09,10.03-5.79,22.4-5.79,32.43,0,9.95,5.75,16.12,16.33,16.21,27.81,.01,1.42,.42,2.84,1.37,3.88,2.16,2.37,5.81,2.4,8,.07,.96-1.02,1.44-2.42,1.44-3.83-.05-15.39-8.28-29.6-21.62-37.3-13.38-7.73-29.86-7.73-43.24,0-13.38,7.72-21.62,22-21.62,37.45v16.04c0,.1-.08,.18-.18,.18H10.81c-4.39,0-8.5,2.67-10.17,7.1-.46,1.23-.64,2.55-.64,3.87v70.11c0,4.39,2.67,8.5,7.1,10.17,1.23,.46,2.55,.64,3.87,.64H118.91c4.39,0,8.5-2.67,10.17-7.1,.46-1.23,.64-2.55,.64-3.87V70.27c0-4.39-2.67-8.5-7.1-10.17Z"/><g><path class="f" d="M73.27,85.06c-1.38,.08-2.6,.9-3.22,2.13l-16.59,33.24c-.46,.91-.53,1.97-.21,2.94,.32,.97,1.02,1.77,1.93,2.23,.53,.27,1.13,.42,1.73,.41h0c.73,0,1.44-.2,2.06-.58,.62-.38,1.11-.93,1.43-1.59l16.55-33.21c.61-1.23,.52-2.7-.24-3.85-.76-1.15-2.08-1.81-3.45-1.72Z"/><path class="f" d="M110.93,102.41l-22.87-16.8c-.82-.63-1.87-.9-2.89-.75-1.03,.15-1.95,.7-2.56,1.54-.61,.84-.86,1.88-.7,2.91,.17,1.02,.74,1.94,1.59,2.53l18.63,13.69-18.63,13.69c-.88,.64-1.45,1.63-1.56,2.72-.11,1.09,.24,2.17,.98,2.98,.73,.81,1.78,1.27,2.87,1.27h0c.82,0,1.62-.27,2.28-.75l22.87-16.8c.99-.73,1.57-1.88,1.57-3.11s-.58-2.38-1.57-3.11Z"/><path class="f" d="M45.3,84.86c-1.03-.15-2.07,.12-2.89,.75l-22.87,16.8c-.99,.73-1.57,1.88-1.57,3.11s.58,2.38,1.57,3.11l22.87,16.8c.66,.49,1.46,.75,2.28,.75,1.09,0,2.14-.46,2.87-1.27,.73-.81,1.09-1.9,.98-2.98-.11-1.09-.68-2.08-1.56-2.72l-18.63-13.69,18.63-13.69c.85-.6,1.42-1.51,1.59-2.53,.17-1.02-.08-2.07-.7-2.91-.61-.84-1.54-1.39-2.56-1.54Z"/></g></g></g></g></svg>