<?xml version="1.0" encoding="UTF-8"?><svg xmlns="http://www.w3.org/2000/svg" viewBox="0 0 129.72 151.34"><defs><style>.d{fill:#fff;}.e{fill:#2e2e2e;}</style></defs><g id="a"/><g id="b"><g id="c"><g><path class="e" d="M122.62,60.1c-1.23-.46-2.55-.64-3.87-.64H32.61c-.1,0-.18-.08-.18-.18v-16.04c0-11.59,6.18-22.29,16.22-28.09,10.03-5.79,22.4-5.79,32.43,0,9.95,5.75,16.12,16.33,16.21,27.81,.01,1.42,.42,2.84,1.37,3.88,2.16,2.37,5.81,2.4,8,.07,.96-1.02,1.44-2.42,1.44-3.83-.05-15.39-8.28-29.6-21.62-37.3-13.38-7.73-29.86-7.73-43.24,0-13.38,7.72-21.62,22-21.62,37.45v16.04c0,.1-.08,.18-.18,.18H10.81c-4.39,0-8.5,2.67-10.17,7.1-.46,1.23-.64,2.55-.64,3.87v70.11c0,4.39,2.67,8.5,7.1,10.17,1.23,.46,2.55,.64,3.87,.64H118.91c4.39,0,8.5-2.67,10.17-7.1,.46-1.23,.64-2.55,.64-3.87V70.27c0-4.39-2.67-8.5-7.1-10.17Z"/><g><path class="d" d="M72.79,86.28c-1.29,.08-2.45,.84-3.03,2l-15.6,31.25c-.43,.86-.5,1.86-.19,2.77,.3,.91,.96,1.67,1.82,2.1,.5,.26,1.06,.39,1.62,.39h0c.68,0,1.36-.19,1.94-.55,.58-.36,1.05-.88,1.35-1.49l15.56-31.23c.58-1.16,.49-2.54-.22-3.62-.72-1.08-1.95-1.7-3.25-1.62Z"/><path class="d" d="M108.2,102.6l-21.51-15.8c-.77-.59-1.75-.85-2.72-.71-.96,.14-1.83,.66-2.41,1.45-.58,.79-.81,1.77-.65,2.73,.16,.96,.7,1.82,1.49,2.38l17.51,12.87-17.51,12.87c-.83,.61-1.36,1.54-1.47,2.56-.1,1.02,.23,2.04,.92,2.8,.69,.76,1.67,1.2,2.7,1.19h0c.77,0,1.52-.25,2.14-.71l21.51-15.8c.93-.68,1.48-1.77,1.48-2.92s-.55-2.24-1.48-2.92Z"/><path class="d" d="M46.49,86.09c-.96-.14-1.94,.12-2.72,.71l-21.51,15.8c-.93,.68-1.48,1.77-1.48,2.92s.55,2.24,1.48,2.92l21.51,15.8c.62,.46,1.37,.7,2.14,.71,1.03,0,2.01-.43,2.7-1.19,.69-.76,1.02-1.78,.92-2.8-.1-1.02-.64-1.95-1.47-2.56l-17.51-12.87,17.51-12.87c.8-.56,1.34-1.42,1.49-2.38,.16-.96-.08-1.95-.65-2.73-.58-.79-1.44-1.31-2.41-1.45Z"/></g></g></g></g></svg>