<?xml version="1.0" encoding="UTF-8"?><svg xmlns="http://www.w3.org/2000/svg" xmlns:xlink="http://www.w3.org/1999/xlink" viewBox="0 0 151 151"><defs><style>.e{fill:url(#d);}.f{fill:#fff;}</style><linearGradient id="d" x1="0" y1="75.5" x2="151" y2="75.5" gradientTransform="matrix(1, 0, 0, 1, 0, 0)" gradientUnits="userSpaceOnUse"><stop offset="0" stop-color="#ff0549"/><stop offset=".98" stop-color="#f60"/></linearGradient></defs><g id="a"/><g id="b"><g id="c"><g><circle class="e" cx="75.5" cy="75.5" r="75.5"/><path class="f" d="M97.05,71.9c5.08-2.86,7.83-8.6,6.88-14.35-1.18-8.88-11.76-12.24-20.12-12.94v-13.35h-8.24v13.24h-5.53v-13.24h-8.24v13.24h-16.59v8.53h6.18c2.76,0,4.12,.82,4.12,3.06v36.65c0,3.06-1.53,4-3.18,4h-6.29v8.71h16v13.53h8.29v-13.53h5.53v13.53h8.06v-13.53h1.76c16.94,0,22.59-8.29,22.59-19.59-.14-6.66-4.75-12.39-11.23-13.94Zm-27-18.35h5.88c4.12,0,12.24,.71,12.24,7.41,.28,4.38-2.89,8.21-7.24,8.76h-10.88v-16.18Zm9.12,42.35v-.06h-9.12v-17.65h10.59c2.47,0,11.76,.82,11.76,7.41s-4.41,10.29-13.24,10.29Z"/></g></g></g></svg>