<?xml version="1.0" encoding="UTF-8"?><svg xmlns="http://www.w3.org/2000/svg" viewBox="0 0 353.57 345.33"><defs><linearGradient id="f" x1="168.97" y1="43.1" x2="190.57" y2="43.1" gradientUnits="userSpaceOnUse"><stop offset="0" stop-color="#c8005b"/><stop offset="1" stop-color="#ee7a00"/></linearGradient><style>.h{fill:#f30053}.l{fill:#404040}.m{fill:#424242}.o{fill:#535353}.p{fill:#262626}.r{fill:#343434}</style></defs><g id="b"><g id="c"><path id="d" d="M51.78 316.64c69.04 38.25 180.97 38.25 250.01 0 69.04-38.25 69.04-100.27 0-138.53-69.04-38.25-180.97-38.25-250.01 0-69.04 38.25-69.04 100.27 0 138.53Z" style="fill:#040404;opacity:.43"/><g id="e"><path class="o" d="m173.57 93.1-87.09 50.28c-1.78 1.03-3.22 3.52-3.22 5.57v97.08c0 2.05 1.44 4.54 3.22 5.57l87.09 50.28c1.78 1.03 4.66 1.03 6.43 0l87.09-50.28c1.78-1.03 3.22-3.52 3.22-5.57v-97.08c0-2.05-1.44-4.54-3.22-5.57L180 93.1c-1.78-1.03-4.66-1.03-6.43 0Z"/><path class="p" d="M176.79 198.14v104.5c-1.17 0-2.33-.26-3.22-.77l-87.1-50.28c-1.78-1.02-3.22-3.52-3.22-5.57v-97.08c0-1.92 1.27-4.23 2.89-5.36-1.44 1.03-1.33 2.55.33 3.51l87.1 50.28c.89.51 2.05.77 3.22.77Z"/><path class="l" d="M267.09 143.38 180 93.1c-1.78-1.03-4.66-1.03-6.43 0l-87.09 50.28c-1.78 1.03-1.78 2.69 0 3.71l87.09 50.28c1.78 1.03 4.66 1.03 6.43 0l87.09-50.28c1.78-1.03 1.78-2.69 0-3.71Z"/><path class="p" d="m184.42 201.78 78.24-45.17c.89-.51 1.61-.1 1.61.93v86.86c0 1.03-.72 2.27-1.61 2.79l-78.24 45.17c-.89.51-1.61.1-1.61-.93v-86.86c0-1.03.72-2.27 1.61-2.79Z"/><path class="m" d="M184.3 204.57c0-.5.44-1.25.86-1.5l77.61-44.81v86.14c0 .5-.43 1.25-.86 1.5l-77.61 44.81v-86.14Z"/><path class="l" d="m183.1 209.51 16.98-9.8c.34-.2.77-.2 1.11 0l2.75 1.59-17.83 9.95-3.02-1.74Z"/><path class="p" d="M204.21 201.92v11.71c0 .62-.43 1.36-.96 1.67l-17.14 9.89v-13.93l17.14-9.89c.53-.31.96-.06.96.56Z"/><path d="m183.1 209.51 3.01 1.74v13.94l-3.01-1.74v-13.94z"/><path class="l" d="M193.38 212.38c.83-.48 1.51-.09 1.51.87s-.68 2.13-1.51 2.61-1.51.09-1.51-.87.68-2.13 1.51-2.61ZM199.41 208.9c.83-.48 1.51-.09 1.51.87s-.68 2.13-1.51 2.61-1.51.09-1.51-.87.68-2.13 1.51-2.61Z"/><g><path class="l" d="m182.82 209.68-4.18 2.41c-1.15.66-2.56.66-3.71 0l-3.06-1.76c-.34-.2-.77-.2-1.11 0l-2.73 1.57 6.9 3.67c1.15.66 2.57.66 3.71 0l7.19-4.15-3.02-1.74Z"/><path class="r" d="m168.7 225.91 6.23 3.6c1.15.66 2.57.66 3.71 0l7.19-4.15v-13.93l-7.19 4.15c-1.15.66-2.56.66-3.71 0l-6.23-3.6c-.53-.31-.96-.06-.96.56v11.71c0 .62.43 1.36.96 1.67Z"/><path class="p" d="M176.8 230.01c.64 0 1.27-.17 1.84-.5l7.19-4.15v-13.93l-7.19 4.15c-.57.33-1.2.49-1.84.5v13.93Z"/></g><g><path class="l" d="m183.1 268.73 16.98-9.8c.34-.2.77-.2 1.11 0l2.75 1.59-17.83 9.95-3.02-1.74Z"/><path class="p" d="M204.21 261.14v11.71c0 .62-.43 1.36-.96 1.67l-17.14 9.89v-13.93l17.14-9.89c.53-.31.96-.06.96.56Z"/><path d="m183.1 268.73 3.01 1.74v13.94l-3.01-1.74v-13.94z"/><path class="l" d="M193.38 271.6c.83-.48 1.51-.09 1.51.87s-.68 2.13-1.51 2.61-1.51.09-1.51-.87.68-2.13 1.51-2.61ZM199.41 268.12c.83-.48 1.51-.09 1.51.87s-.68 2.13-1.51 2.61-1.51.09-1.51-.87.68-2.13 1.51-2.61Z"/><g><path class="l" d="m182.82 268.9-4.18 2.41c-1.15.66-2.56.66-3.71 0l-3.06-1.76c-.34-.2-.77-.2-1.11 0l-2.73 1.57 6.9 3.67c1.15.66 2.57.66 3.71 0l7.19-4.15-3.02-1.74Z"/><path class="r" d="m168.7 285.13 6.23 3.6c1.15.66 2.57.66 3.71 0l7.19-4.15v-13.93l-7.19 4.15c-1.15.66-2.56.66-3.71 0l-6.23-3.6c-.53-.31-.96-.06-.96.56v11.71c0 .62.43 1.36.96 1.67Z"/><path class="p" d="M176.8 289.23c.64 0 1.27-.17 1.84-.5l7.19-4.15v-13.93l-7.19 4.15c-.57.33-1.2.49-1.84.5v13.93Z"/></g></g><g><path class="p" d="m235.72 212.26.51-.88-3.07-1.77-.04-.02-.06-.03c-2.45-1.37-5.81-1.15-9.52 1-7.5 4.33-13.58 14.86-13.58 23.51 0 4.25 1.47 7.25 3.84 8.71l.09.06s.06.03.09.05l3.07 1.77.52-.9c1.8-.02 3.83-.61 5.97-1.85 7.5-4.33 13.58-14.86 13.58-23.51 0-2.49-.5-4.55-1.4-6.12Z"/><ellipse class="p" cx="227.05" cy="228.25" rx="19.2" ry="11.08" transform="rotate(-60 227.056 228.2474)"/><ellipse class="r" cx="226.56" cy="227.97" rx="19.2" ry="11.08" transform="rotate(-60 226.5574 227.971)"/><path class="h" d="M227.95 217.51c-.3.11-.49-.14-.42-.57l.62-3.61c.07-.42.38-.86.68-.97s.49.14.42.57l-.62 3.61c-.07.42-.38.86-.68.97ZM222.84 221.41c-.17.06-.32.01-.39-.15l-1.01-2.36c-.12-.28.02-.78.31-1.12.29-.34.62-.39.74-.11l1.01 2.36c.12.28-.02.78-.31 1.12-.11.13-.24.22-.35.27ZM218.93 228.14c-.06.02-.11.03-.16.02l-2.26-.21c-.27-.03-.35-.4-.18-.84.16-.44.51-.77.78-.75l2.26.21c.27.03.35.4.18.84-.13.35-.38.64-.61.72ZM215.08 237.13c-.23.09-.41-.04-.43-.34-.02-.37.21-.86.52-1.1l2.64-2.01c.31-.24.58-.13.61.24.02.37-.21.86-.52 1.1l-2.64 2.01c-.06.05-.12.08-.18.1ZM217.66 243.16c-.11.04-.22.04-.3-.03-.2-.16-.17-.62.06-1.03l2.02-3.47c.24-.41.59-.61.8-.45.2.16.17.62-.06 1.03l-2.02 3.47c-.14.25-.33.42-.5.48ZM223.42 243.7c-.3.11-.49-.14-.42-.57l.62-3.61c.07-.42.38-.86.68-.97.3-.11.49.14.42.57l-.62 3.61c-.07.42-.38.86-.68.97ZM230.17 238.56c-.17.06-.32.01-.39-.15l-1.01-2.36c-.12-.28.02-.78.31-1.12.29-.34.62-.39.74-.11l1.01 2.36c.12.28-.02.78-.31 1.12-.11.13-.24.22-.35.27ZM235.32 229.69c-.06.02-.11.03-.16.02l-2.26-.21c-.27-.03-.35-.4-.18-.84.16-.44.51-.77.78-.75l2.26.21c.27.03.35.4.18.84-.13.35-.38.64-.61.72ZM234.27 222.5c-.23.09-.41-.04-.43-.34-.02-.37.21-.86.52-1.1l2.64-2.01c.31-.24.58-.13.61.24.02.37-.21.86-.52 1.1l-2.64 2.01c-.06.05-.12.08-.18.1ZM232.32 217.93c-.11.04-.22.03-.3-.03-.2-.16-.17-.62.06-1.03l2.02-3.47c.24-.41.59-.61.8-.45.2.16.17.62-.06 1.03l-2.02 3.47c-.14.25-.33.42-.5.48Z"/><path class="p" d="M233.15 219.92c-1.29-1.91-3.75-2.29-6.58-.66-4.17 2.4-7.54 8.25-7.54 13.06 0 3.43 1.73 5.4 4.23 5.37l5.8.15 7.3-13.36-3.19-4.57Z"/><path class="l" d="M231.5 224.09c-3.11 1.79-5.62 6.15-5.62 9.74s2.52 5.04 5.62 3.25c3.11-1.79 5.62-6.15 5.62-9.74s-2.52-5.04-5.62-3.25Z"/></g><path class="p" d="M258.31 199.78c.1-2.48-1.18-4.81-3.33-6.06l-10.06-5.81-.04-.03c-.77-.43-1.83-.36-2.99.31-2.36 1.36-4.27 4.67-4.27 7.39 0 1.52.6 2.54 1.54 2.9s.04.02.06.02l9.67 3.07c2.14.68 3.63 2.61 3.75 4.85l1.08 20.66c0 .96.78 1.74 1.74 1.74s1.74-.78 1.74-1.74l1.11-27.32Z"/><g><path d="m174.67 103.45-69.74 40.26c-1.42.82-1.42 2.15 0 2.97l69.74 40.26c.68.39 1.55.59 2.44.61v-84.71c-.89.02-1.76.22-2.44.61Z" style="fill:#1a1a1a"/><path d="m249.56 143.71-69.74-40.26c-.75-.43-1.74-.63-2.71-.61v84.72c.98.02 1.97-.18 2.71-.61l69.74-40.26c1.42-.82 1.42-2.15 0-2.97Z" style="fill:#131313"/></g></g><path class="o" d="M202.12 5.36c-.45 0-.95.07-1.47.22-.98.28-1.96.59-2.95.92-1.41.47-2.82.98-4.24 1.54-.68.27-1.36.54-2.04.83-1.75.74-3.52 1.54-5.28 2.41-.69.34-1.38.69-2.08 1.05-1.41.73-2.82 1.51-4.23 2.32-.42.24-.83.49-1.25.73-.43.26-.87.52-1.3.78-2.02 1.24-4.04 2.55-6.05 3.95-.28.19-.56.39-.83.58-2 1.41-3.99 2.9-5.98 4.46-.53.42-1.06.84-1.59 1.27-1.28 1.04-2.55 2.1-3.82 3.2-1.54 1.33-2.81 3.04-3.65 4.79l-2.76-1.59-6.6-3.81c.06-.13.13-.26.2-.39.84-1.6 2.03-3.13 3.44-4.35 6.8-5.89 13.81-10.92 20.82-14.97 7.01-4.05 14.02-7.11 20.82-9.08 1.23-.36 2.3-.28 3.11.17l6.54 3.77s.03.02.04.02l.11.07c.43.26.78.63 1.04 1.1Z"/><path class="m" d="m156.49 76.91-.96-.39h-.02l-1.11-.64-.22-.13-5.45-3.12c-.35-.16-.67-.34-.98-.56-1.85-1.31-2.88-3.67-2.88-6.72V33.34c0-1.35.41-2.86 1.13-4.33l6.6 3.81 2.76 1.59c-.7 1.46-1.11 2.95-1.11 4.29v32c0 1.55.26 2.92.77 4.07.37.84.87 1.56 1.48 2.14Z"/><path d="m201.4 4.49-8.16 4.42v25.34c0 3.65-1.46 8-4.07 12.06l-18.1 28.28c-1.89 2.96-4.94 4.72-6.83 3.94l-9.52-3.89-.34 1.25c-1.88-1.31-2.92-3.68-2.92-6.75v-32c0-1.33.4-2.83 1.11-4.29.84-1.75 2.12-3.46 3.65-4.79 6.8-5.89 13.81-10.92 20.82-14.97 7.01-4.05 14.02-7.11 20.82-9.07.52-.15 1.01-.22 1.47-.22s.87.07 1.24.21l.83.48Z" style="fill:#8e44b9"/><path d="M202.62 7.6v32.01c0 3.65-1.47 8-4.07 12.06l-18.1 28.29c-1.89 2.96-4.94 4.72-6.83 3.94l-17.14-6.99-.96-.39h-.02c-.4-.17-.77-.38-1.12-.61-.05-.04-.1-.07-.15-.11-.02-.02-.04-.03-.06-.05-.12-.09-.24-.19-.35-.29-.04-.04-.08-.07-.12-.11-.05-.04-.09-.09-.14-.13l-.1-.1c-.11-.12-.22-.25-.33-.38-.03-.04-.06-.07-.09-.11-.06-.07-.11-.15-.17-.23-.02-.03-.05-.07-.07-.1-.02-.03-.05-.07-.07-.11-.03-.05-.07-.1-.1-.16-.03-.04-.05-.09-.08-.13l-.18-.33c-.03-.05-.05-.11-.08-.16-.06-.13-.12-.26-.17-.39-.02-.04-.04-.09-.05-.14 0-.02-.02-.04-.02-.06-.02-.04-.03-.09-.05-.13-.01-.03-.02-.07-.04-.1l-.06-.18-.06-.18c-.01-.03-.02-.06-.03-.1-.01-.05-.03-.11-.04-.16v-.02c-.02-.07-.03-.13-.05-.2-.01-.06-.03-.12-.04-.18-.02-.08-.03-.16-.05-.24-.02-.09-.03-.17-.04-.25 0-.05-.02-.1-.02-.15l-.03-.18c-.02-.15-.04-.31-.05-.47 0-.06-.01-.11-.01-.17 0-.04 0-.09-.01-.13 0-.09-.01-.18-.01-.27 0-.18-.01-.36-.01-.55V37.14c0-1.33.4-2.83 1.11-4.29 0-.01.01-.02.02-.04.06-.13.12-.25.19-.38.05-.09.09-.18.14-.27.05-.1.11-.19.16-.29.04-.06.07-.12.11-.19.03-.05.06-.11.1-.16.06-.1.12-.19.18-.29.05-.08.11-.17.17-.25.08-.13.17-.25.26-.38.07-.1.15-.21.23-.31.08-.1.15-.2.24-.3.05-.06.1-.13.16-.19.13-.16.26-.31.39-.46.15-.17.31-.34.47-.5.13-.13.26-.26.39-.38.14-.14.29-.27.44-.4 6.8-5.89 13.81-10.92 20.82-14.97 7.01-4.05 14.02-7.11 20.82-9.07.52-.15 1.01-.22 1.47-.22s.87.07 1.24.21c.12.04.24.1.35.15.02 0 .03.02.04.02l.11.07c.11.07.22.15.33.23.28.23.52.52.71.87.33.6.51 1.35.51 2.25Z" style="fill:#838282"/><path d="M198.75 13.1v27.16c0 3.1-1.24 6.79-3.45 10.24l-15.36 24c-1.61 2.51-4.19 4-5.8 3.35l-15.36-6.27c-.35-.14-.67-.32-.97-.52-1.6-1.11-2.48-3.12-2.48-5.73V38.17c0-1.13.34-2.4.94-3.64.71-1.49 1.8-2.93 3.1-4.06 5.77-5 11.72-9.27 17.67-12.7 5.95-3.43 11.9-6.04 17.67-7.7.44-.13.86-.19 1.24-.19s.74.06 1.05.18c1.09.4 1.74 1.48 1.74 3.05Z" style="fill:#242424"/><path d="M189.23 38.7c-.89-.65-2.11-.77-3.64-.33 1.26-1.28 2.21-2.68 2.87-4.21.65-1.52.98-2.94.98-4.25 0-.83-.15-1.57-.43-2.22-.29-.65-.7-1.15-1.23-1.48-.53-.34-1.17-.49-1.93-.46-.75.03-1.6.32-2.53.86l-.85.49v-4.35l-2.7 1.56v4.35l-3.28 1.89V26.2l-2.7 1.56v4.35l-4.82 2.78V61.7l4.82-2.78v4.51l2.7-1.56v-4.52l3.28-1.9v4.52l1.04-.6 1.66-.96v-4.53c.98-.61 1.91-1.29 2.8-2.06.31-.27.61-.55.9-.83.68-.67 1.3-1.36 1.85-2.09.79-1.04 1.42-2.11 1.87-3.23.18-.44.32-.89.43-1.33.17-.68.25-1.36.25-2.05 0-1.76-.45-2.97-1.34-3.62Zm-15.05-2.36 7.18-4.14c.4-.23.77-.37 1.11-.43.36-.06.69-.02.98.13.57.28.85.93.85 1.96s-.31 2.07-.93 3.03c-.28.43-.58.81-.91 1.15-.41.42-.85.77-1.34 1.05l-4.64 2.68-2.31 1.33v-6.76Zm10.88 9.54c-.18.53-.42 1.04-.72 1.53s-.66.94-1.08 1.36c-.25.25-.52.48-.8.68-.18.13-.36.25-.55.36l-2.15 1.24-5.59 3.23v-7.06l2.31-1.33 5.7-3.29c.1-.06.19-.11.28-.15.34-.17.67-.26.96-.29.38-.03.7.04.98.21.28.17.5.42.66.77.16.35.25.76.25 1.24s-.09.98-.26 1.51Z" style="fill:url(#f)"/></g></g></svg>