<?xml version="1.0" encoding="UTF-8"?><svg xmlns="http://www.w3.org/2000/svg" viewBox="0 0 130.75 152"><defs><style>.d{fill:#fff;}.e{fill:#2e2e2e;}</style></defs><g id="a"/><g id="b"><g id="c"><g><path class="e" d="M127.99,26.33c-12.53-1.28-22.5-11.15-23.79-23.58-.16-1.56-1.47-2.75-3.04-2.75H29.59c-1.57,0-2.88,1.19-3.04,2.75-1.29,12.43-11.26,22.31-23.79,23.58-1.56,.16-2.76,1.47-2.76,3.04V63.62c0,41.17,27.02,76.08,64.43,88.23,.61,.2,1.27,.2,1.88,0,37.41-12.15,64.43-47.06,64.43-88.23V29.38c0-1.57-1.19-2.88-2.76-3.04Z"/><path class="d" d="M65.37,25.05h0c-18.65,0-33.81,15.16-33.81,33.81,0,11.07,5.43,21.52,14.65,27.87,1.84,1.23,2.97,3.38,2.97,5.74v15.88c0,2.97,2.36,5.33,5.33,5.33h.61c.92,4.92,5.23,8.61,10.35,8.61s9.43-3.79,10.35-8.61h.61c2.97,0,5.33-2.36,5.33-5.33v-15.78c0-2.36,1.13-4.51,2.97-5.74,9.02-6.35,14.45-16.8,14.45-27.97,0-18.65-15.16-33.81-33.81-33.81Zm1.13,14.34c.41-.41,.72-.92,.72-1.43v-9.02c15.16,.92,27.15,13.01,28.07,28.07h-6.76c.1-.41,.21-.72,.31-1.02,.41-1.33,.51-2.77,.1-4.1-.61-2.56-2.66-4.51-5.23-5.12-2.15-.51-4.41,0-6.15,1.33-1.74,1.33-2.77,3.38-2.77,5.64,0,.72,.1,1.54,.31,2.25,.1,.31,.21,.72,.31,1.13h-8.3v-10.76c0-.51-.2-1.13-.72-1.43-.41-.41-1.02-.51-1.54-.41-1.43,.21-2.66,.51-3.79,.92-1.33,.41-2.87,0-3.69-1.13-.61-.82-.92-1.84-.61-2.97,.31-1.13,1.23-2.15,2.36-2.46,.72-.21,1.33-.21,2.05,0,1.23,.41,2.46,.72,3.79,.92,.51,.1,1.13-.1,1.54-.41Zm-2.97-10.45v6.76c-.41-.1-.72-.21-1.02-.31-1.33-.41-2.77-.51-4.1-.1-2.56,.61-4.51,2.66-5.12,5.23-.51,2.15,0,4.41,1.33,6.15,1.33,1.74,3.38,2.77,5.64,2.77,.72,0,1.54-.1,2.25-.31,.31-.1,.72-.21,1.13-.31v8.3h-10.76c-.51,0-1.13,.2-1.43,.72-.41,.41-.51,1.02-.41,1.54,.31,1.43,.61,2.66,.92,3.79,.1,.31,.21,.72,.21,1.02,0,1.02-.51,2.05-1.33,2.66-.82,.61-1.84,.92-2.97,.61-1.13-.31-2.15-1.23-2.46-2.36-.21-.72-.21-1.33,0-2.05,.41-1.23,.72-2.46,.92-3.79,.1-.51-.1-1.13-.41-1.54-.41-.41-.92-.72-1.43-.72h-9.12c1.02-15.06,13.01-27.15,28.17-28.07Zm-15.27,54.71h0c-7.58-5.22-12.4-13.73-12.91-22.85h6.76c-.1,.41-.21,.72-.31,1.02-.41,1.33-.51,2.77-.1,4.1,.61,2.56,2.66,4.51,5.23,5.12,.61,.1,1.13,.21,1.74,.21,1.64,0,3.18-.51,4.51-1.54,1.74-1.33,2.77-3.38,2.77-5.64,0-.72-.1-1.54-.31-2.25-.1-.31-.21-.72-.31-1.13h8.3v10.65c0,.51,.21,1.13,.72,1.43,.41,.41,1.02,.51,1.54,.41,1.43-.31,2.66-.51,3.79-.92,1.33-.41,2.87,0,3.69,1.13,.61,.82,.92,1.84,.61,2.97-.31,1.13-1.23,2.15-2.36,2.46-.72,.21-1.33,.21-2.05,0-1.23-.41-2.46-.72-3.79-.92-.51-.1-1.13,.1-1.54,.41-.41,.41-.72,.92-.72,1.43v11.58h-10.76c-.31-3.07-1.95-5.94-4.51-7.68Zm4.61,11.48h25v5.53h-25v-5.53Zm12.5,23.46h0c-3.07,0-5.64-2.05-6.45-4.92h12.91c-.82,2.87-3.38,4.92-6.45,4.92Zm12.5-10.14c0,.82-.72,1.54-1.54,1.54h-21.93c-.82,0-1.54-.72-1.54-1.54v-4h25v4Zm4.61-24.79h0c-2.56,1.74-4.2,4.61-4.51,7.68h-10.76v-9.32c.41,.1,.72,.21,1.02,.31,1.33,.41,2.77,.51,4.1,.1,2.56-.61,4.51-2.66,5.12-5.23,.51-2.15,0-4.41-1.33-6.15-1.33-1.74-3.38-2.77-5.64-2.77-.72,0-1.54,.1-2.25,.31-.31,.1-.72,.21-1.13,.31v-8.3h10.65c.51,0,1.13-.21,1.43-.72,.41-.41,.51-1.02,.41-1.54-.21-1.43-.51-2.66-.92-3.79-.1-.31-.21-.72-.21-1.02,0-1.02,.51-2.05,1.33-2.66,.82-.61,1.84-.92,2.97-.61,1.13,.31,2.15,1.23,2.46,2.36,.21,.72,.21,1.33,0,2.05-.41,1.23-.72,2.46-.92,3.79-.1,.51,.1,1.13,.41,1.54s.92,.72,1.43,.72h9.12c-.51,9.22-5.22,17.73-12.81,22.95Z"/></g></g></g></svg>