<?xml version="1.0" encoding="UTF-8"?><svg xmlns="http://www.w3.org/2000/svg" viewBox="0 0 151 151"><circle cx="75.5" cy="75.5" r="75.5" style="fill:#2e2e2e"/><path d="M96.28 72.02c4.89-2.76 7.54-8.28 6.62-13.81-1.13-8.55-11.32-11.78-19.36-12.45V32.91h-7.93v12.74h-5.32V32.91h-7.93v12.74H46.39v8.21h5.94c2.66 0 3.96.79 3.96 2.94v35.27c0 2.94-1.47 3.85-3.06 3.85h-6.06v8.38h15.4v13.02h7.98V104.3h5.32v13.02h7.76V104.3h1.7c16.3 0 21.74-7.98 21.74-18.85-.13-6.41-4.57-11.92-10.81-13.42ZM70.29 54.36h5.66c3.96 0 11.78.68 11.78 7.13.27 4.21-2.78 7.9-6.96 8.44H70.3V54.36Zm8.77 40.76v-.06h-8.77V78.08h10.19c2.38 0 11.32.79 11.32 7.13s-4.25 9.91-12.74 9.91Z" style="fill:#fff"/></svg>