<?xml version="1.0" encoding="UTF-8"?><svg xmlns="http://www.w3.org/2000/svg" xmlns:xlink="http://www.w3.org/1999/xlink" viewBox="0 0 130.75 152"><defs><style>.e{fill:url(#d);}.f{fill:#fff;}</style><linearGradient id="d" x1="0" y1="76" x2="130.75" y2="76" gradientTransform="matrix(1, 0, 0, 1, 0, 0)" gradientUnits="userSpaceOnUse"><stop offset="0" stop-color="#ff0549"/><stop offset=".98" stop-color="#f60"/></linearGradient></defs><g id="a"/><g id="b"><g id="c"><g><path class="e" d="M127.99,26.33c-12.53-1.28-22.5-11.15-23.79-23.58-.16-1.56-1.47-2.75-3.04-2.75H29.59c-1.57,0-2.88,1.19-3.04,2.75-1.29,12.43-11.26,22.31-23.79,23.58-1.56,.16-2.76,1.47-2.76,3.04V63.62c0,41.17,27.02,76.08,64.43,88.23,.61,.2,1.27,.2,1.88,0,37.41-12.15,64.43-47.06,64.43-88.23V29.38c0-1.57-1.19-2.88-2.76-3.04Z"/><path class="f" d="M65.37,23.39h0c-19.28,0-34.96,15.68-34.96,34.96,0,11.44,5.61,22.25,15.15,28.82,1.91,1.27,3.07,3.5,3.07,5.93v16.42c0,3.07,2.44,5.51,5.51,5.51h.64c.95,5.09,5.4,8.9,10.7,8.9s9.75-3.92,10.7-8.9h.64c3.07,0,5.51-2.44,5.51-5.51v-16.32c0-2.44,1.17-4.66,3.07-5.93,9.32-6.57,14.94-17.37,14.94-28.92,0-19.28-15.68-34.96-34.96-34.96Zm1.16,14.83c.42-.42,.74-.95,.74-1.48v-9.32c15.68,.95,28.07,13.45,29.03,29.03h-6.99c.11-.42,.21-.74,.32-1.06,.42-1.38,.53-2.86,.11-4.24-.64-2.65-2.75-4.66-5.4-5.3-2.23-.53-4.56,0-6.36,1.38-1.8,1.38-2.86,3.5-2.86,5.83,0,.74,.11,1.59,.32,2.33,.11,.32,.21,.74,.32,1.17h-8.58v-11.12c0-.53-.21-1.17-.74-1.48-.42-.42-1.06-.53-1.59-.42-1.48,.21-2.75,.53-3.92,.95-1.38,.42-2.97,0-3.81-1.17-.64-.85-.95-1.91-.64-3.07,.32-1.17,1.27-2.23,2.44-2.54,.74-.21,1.38-.21,2.12,0,1.27,.42,2.54,.74,3.92,.95,.53,.11,1.17-.11,1.59-.42Zm-3.07-10.81v6.99c-.42-.11-.74-.21-1.06-.32-1.38-.42-2.86-.53-4.24-.11-2.65,.64-4.66,2.75-5.3,5.4-.53,2.23,0,4.56,1.38,6.36,1.38,1.8,3.5,2.86,5.83,2.86,.74,0,1.59-.11,2.33-.32,.32-.11,.74-.21,1.17-.32v8.58h-11.12c-.53,0-1.17,.21-1.48,.74-.42,.42-.53,1.06-.42,1.59,.32,1.48,.64,2.75,.95,3.92,.11,.32,.21,.74,.21,1.06,0,1.06-.53,2.12-1.38,2.75-.85,.64-1.91,.95-3.07,.64s-2.23-1.27-2.54-2.44c-.21-.74-.21-1.38,0-2.12,.42-1.27,.74-2.54,.95-3.92,.11-.53-.11-1.17-.42-1.59-.42-.42-.95-.74-1.48-.74h-9.43c1.06-15.57,13.45-28.07,29.13-29.03Zm-15.79,56.57h0c-7.84-5.4-12.82-14.2-13.35-23.62h6.99c-.11,.42-.21,.74-.32,1.06-.42,1.38-.53,2.86-.11,4.24,.64,2.65,2.75,4.66,5.4,5.3,.64,.11,1.17,.21,1.8,.21,1.7,0,3.28-.53,4.66-1.59,1.8-1.38,2.86-3.5,2.86-5.83,0-.74-.11-1.59-.32-2.33-.11-.32-.21-.74-.32-1.17h8.58v11.02c0,.53,.21,1.17,.74,1.48,.42,.42,1.06,.53,1.59,.42,1.48-.32,2.75-.53,3.92-.95,1.38-.42,2.97,0,3.81,1.17,.64,.85,.95,1.91,.64,3.07-.32,1.17-1.27,2.23-2.44,2.54-.74,.21-1.38,.21-2.12,0-1.27-.42-2.54-.74-3.92-.95-.53-.11-1.17,.11-1.59,.42-.42,.42-.74,.95-.74,1.48v11.97h-11.12c-.32-3.18-2.01-6.14-4.66-7.95Zm4.77,11.87h25.85v5.72h-25.85v-5.72Zm12.93,24.26h0c-3.18,0-5.83-2.12-6.67-5.09h13.35c-.85,2.97-3.5,5.09-6.67,5.09Zm12.93-10.49c0,.85-.74,1.59-1.59,1.59h-22.67c-.85,0-1.59-.74-1.59-1.59v-4.13h25.85v4.13Zm4.77-25.64h0c-2.65,1.8-4.34,4.77-4.66,7.94h-11.12v-9.64c.42,.11,.74,.21,1.06,.32,1.38,.42,2.86,.53,4.24,.11,2.65-.64,4.66-2.75,5.3-5.4,.53-2.23,0-4.56-1.38-6.36-1.38-1.8-3.5-2.86-5.83-2.86-.74,0-1.59,.11-2.33,.32-.32,.11-.74,.21-1.17,.32v-8.58h11.02c.53,0,1.17-.21,1.48-.74,.42-.42,.53-1.06,.42-1.59-.21-1.48-.53-2.75-.95-3.92-.11-.32-.21-.74-.21-1.06,0-1.06,.53-2.12,1.38-2.75,.85-.64,1.91-.95,3.07-.64,1.17,.32,2.23,1.27,2.54,2.44,.21,.74,.21,1.38,0,2.12-.42,1.27-.74,2.54-.95,3.92-.11,.53,.11,1.17,.42,1.59s.95,.74,1.48,.74h9.43c-.53,9.54-5.4,18.33-13.24,23.73Z"/></g></g></g></svg>