<?xml version="1.0" encoding="UTF-8"?><svg xmlns="http://www.w3.org/2000/svg" xmlns:xlink="http://www.w3.org/1999/xlink" viewBox="0 0 353.57 355.33"><defs><linearGradient id="f" x1="168.97" y1="43.1" x2="190.57" y2="43.1" gradientUnits="userSpaceOnUse"><stop offset="0" stop-color="#c8005b"/><stop offset="1" stop-color="#ee7a00"/></linearGradient><linearGradient id="g" x1="-3256.3" y1="102.59" x2="-3232.49" y2="102.59" gradientTransform="matrix(-1 0 0 1 -3024.52 0)" xlink:href="#f"/><linearGradient id="h" x1="128.53" y1="124.88" x2="151.39" y2="124.88" xlink:href="#f"/><style>.l{fill:#f30053}.m{fill:#c2c2c2}.n{fill:#8e44b9}.p{fill:#242424}.q{fill:#404040}.r{fill:#424242}.t{fill:#535353}.u{fill:#262626}.v{fill:#838282}.w{fill:#343434}</style></defs><g id="b"><g id="c"><path id="d" d="M51.78 326.64c69.04 38.25 180.97 38.25 250.01 0 69.04-38.25 69.04-100.27 0-138.53-69.04-38.25-180.97-38.25-250.01 0-69.04 38.25-69.04 100.27 0 138.53Z" style="fill:#040404;opacity:.43"/><g id="e"><path class="t" d="m173.57 103.1-87.09 50.28c-1.78 1.03-3.22 3.52-3.22 5.57v97.08c0 2.05 1.44 4.54 3.22 5.57l87.09 50.28c1.78 1.03 4.66 1.03 6.43 0l87.09-50.28c1.78-1.03 3.22-3.52 3.22-5.57v-97.08c0-2.05-1.44-4.54-3.22-5.57L180 103.1c-1.78-1.03-4.66-1.03-6.43 0Z"/><path class="u" d="M176.79 208.14v104.5c-1.17 0-2.33-.26-3.22-.77l-87.1-50.28c-1.78-1.02-3.22-3.52-3.22-5.57v-97.08c0-1.92 1.27-4.23 2.89-5.36-1.44 1.03-1.33 2.55.33 3.51l87.1 50.28c.89.51 2.05.77 3.22.77Z"/><path class="q" d="M267.09 153.38 180 103.1c-1.78-1.03-4.66-1.03-6.43 0l-87.09 50.28c-1.78 1.03-1.78 2.69 0 3.71l87.09 50.28c1.78 1.03 4.66 1.03 6.43 0l87.09-50.28c1.78-1.03 1.78-2.69 0-3.71Z"/><path class="u" d="m184.42 211.78 78.24-45.17c.89-.51 1.61-.1 1.61.93v86.86c0 1.03-.72 2.27-1.61 2.79l-78.24 45.17c-.89.51-1.61.1-1.61-.93v-86.86c0-1.03.72-2.27 1.61-2.79Z"/><path class="r" d="M184.3 214.57c0-.5.44-1.25.86-1.5l77.61-44.81v86.14c0 .5-.43 1.25-.86 1.5l-77.61 44.81v-86.14Z"/><path class="q" d="m183.1 219.51 16.98-9.8c.34-.2.77-.2 1.11 0l2.75 1.59-17.83 9.95-3.02-1.74Z"/><path class="u" d="M204.21 211.92v11.71c0 .62-.43 1.36-.96 1.67l-17.14 9.89v-13.93l17.14-9.89c.53-.31.96-.06.96.56Z"/><path d="m183.1 219.51 3.01 1.74v13.94l-3.01-1.74v-13.94z"/><path class="q" d="M193.38 222.38c.83-.48 1.51-.09 1.51.87s-.68 2.13-1.51 2.61-1.51.09-1.51-.87.68-2.13 1.51-2.61ZM199.41 218.9c.83-.48 1.51-.09 1.51.87s-.68 2.13-1.51 2.61-1.51.09-1.51-.87.68-2.13 1.51-2.61Z"/><g><path class="q" d="m182.82 219.68-4.18 2.41c-1.15.66-2.56.66-3.71 0l-3.06-1.76c-.34-.2-.77-.2-1.11 0l-2.73 1.57 6.9 3.67c1.15.66 2.57.66 3.71 0l7.19-4.15-3.02-1.74Z"/><path class="w" d="m168.7 235.91 6.23 3.6c1.15.66 2.57.66 3.71 0l7.19-4.15v-13.93l-7.19 4.15c-1.15.66-2.56.66-3.71 0l-6.23-3.6c-.53-.31-.96-.06-.96.56v11.71c0 .62.43 1.36.96 1.67Z"/><path class="u" d="M176.8 240.01c.64 0 1.27-.17 1.84-.5l7.19-4.15v-13.93l-7.19 4.15c-.57.33-1.2.49-1.84.5v13.93Z"/></g><g><path class="q" d="m183.1 278.73 16.98-9.8c.34-.2.77-.2 1.11 0l2.75 1.59-17.83 9.95-3.02-1.74Z"/><path class="u" d="M204.21 271.14v11.71c0 .62-.43 1.36-.96 1.67l-17.14 9.89v-13.93l17.14-9.89c.53-.31.96-.06.96.56Z"/><path d="m183.1 278.73 3.01 1.74v13.94l-3.01-1.74v-13.94z"/><path class="q" d="M193.38 281.6c.83-.48 1.51-.09 1.51.87s-.68 2.13-1.51 2.61-1.51.09-1.51-.87.68-2.13 1.51-2.61ZM199.41 278.12c.83-.48 1.51-.09 1.51.87s-.68 2.13-1.51 2.61-1.51.09-1.51-.87.68-2.13 1.51-2.61Z"/><g><path class="q" d="m182.82 278.9-4.18 2.41c-1.15.66-2.56.66-3.71 0l-3.06-1.76c-.34-.2-.77-.2-1.11 0l-2.73 1.57 6.9 3.67c1.15.66 2.57.66 3.71 0l7.19-4.15-3.02-1.74Z"/><path class="w" d="m168.7 295.13 6.23 3.6c1.15.66 2.57.66 3.71 0l7.19-4.15v-13.93l-7.19 4.15c-1.15.66-2.56.66-3.71 0l-6.23-3.6c-.53-.31-.96-.06-.96.56v11.71c0 .62.43 1.36.96 1.67Z"/><path class="u" d="M176.8 299.23c.64 0 1.27-.17 1.84-.5l7.19-4.15v-13.93l-7.19 4.15c-.57.33-1.2.49-1.84.5v13.93Z"/></g></g><g><path class="u" d="m235.72 222.26.51-.88-3.07-1.77-.04-.02-.06-.03c-2.45-1.37-5.81-1.15-9.52 1-7.5 4.33-13.58 14.86-13.58 23.51 0 4.25 1.47 7.25 3.84 8.71l.09.06s.06.03.09.05l3.07 1.77.52-.9c1.8-.02 3.83-.61 5.97-1.85 7.5-4.33 13.58-14.86 13.58-23.51 0-2.49-.5-4.55-1.4-6.12Z"/><ellipse class="u" cx="227.05" cy="238.25" rx="19.2" ry="11.08" transform="rotate(-60 227.0562 238.2472)"/><ellipse class="w" cx="226.56" cy="237.97" rx="19.2" ry="11.08" transform="rotate(-60 226.5575 237.9708)"/><path class="l" d="M227.95 227.51c-.3.11-.49-.14-.42-.57l.62-3.61c.07-.42.38-.86.68-.97s.49.14.42.57l-.62 3.61c-.07.42-.38.86-.68.97ZM222.84 231.41c-.17.06-.32.01-.39-.15l-1.01-2.36c-.12-.28.02-.78.31-1.12.29-.34.62-.39.74-.11l1.01 2.36c.12.28-.02.78-.31 1.12-.11.13-.24.22-.35.27ZM218.93 238.14c-.06.02-.11.03-.16.02l-2.26-.21c-.27-.03-.35-.4-.18-.84.16-.44.51-.77.78-.75l2.26.21c.27.03.35.4.18.84-.13.35-.38.64-.61.72ZM215.08 247.13c-.23.09-.41-.04-.43-.34-.02-.37.21-.86.52-1.1l2.64-2.01c.31-.24.58-.13.61.24.02.37-.21.86-.52 1.1l-2.64 2.01c-.06.05-.12.08-.18.1ZM217.66 253.16c-.11.04-.22.04-.3-.03-.2-.16-.17-.62.06-1.03l2.02-3.47c.24-.41.59-.61.8-.45.2.16.17.62-.06 1.03l-2.02 3.47c-.14.25-.33.42-.5.48ZM223.42 253.7c-.3.11-.49-.14-.42-.57l.62-3.61c.07-.42.38-.86.68-.97.3-.11.49.14.42.57l-.62 3.61c-.07.42-.38.86-.68.97ZM230.17 248.56c-.17.06-.32.01-.39-.15l-1.01-2.36c-.12-.28.02-.78.31-1.12.29-.34.62-.39.74-.11l1.01 2.36c.12.28-.02.78-.31 1.12-.11.13-.24.22-.35.27ZM235.32 239.69c-.06.02-.11.03-.16.02l-2.26-.21c-.27-.03-.35-.4-.18-.84.16-.44.51-.77.78-.75l2.26.21c.27.03.35.4.18.84-.13.35-.38.64-.61.72ZM234.27 232.5c-.23.09-.41-.04-.43-.34-.02-.37.21-.86.52-1.1l2.64-2.01c.31-.24.58-.13.61.24.02.37-.21.86-.52 1.1l-2.64 2.01c-.06.05-.12.08-.18.1ZM232.32 227.93c-.11.04-.22.03-.3-.03-.2-.16-.17-.62.06-1.03l2.02-3.47c.24-.41.59-.61.8-.45.2.16.17.62-.06 1.03l-2.02 3.47c-.14.25-.33.42-.5.48Z"/><path class="u" d="M233.15 229.92c-1.29-1.91-3.75-2.29-6.58-.66-4.17 2.4-7.54 8.25-7.54 13.06 0 3.43 1.73 5.4 4.23 5.37l5.8.15 7.3-13.36-3.19-4.57Z"/><path class="q" d="M231.5 234.09c-3.11 1.79-5.62 6.15-5.62 9.74s2.52 5.04 5.62 3.25c3.11-1.79 5.62-6.15 5.62-9.74s-2.52-5.04-5.62-3.25Z"/></g><path class="u" d="M258.31 209.78c.1-2.48-1.18-4.81-3.33-6.06l-10.06-5.81-.04-.03c-.77-.43-1.83-.36-2.99.31-2.36 1.36-4.27 4.67-4.27 7.39 0 1.52.6 2.54 1.54 2.9s.04.02.06.02l9.67 3.07c2.14.68 3.63 2.61 3.75 4.85l1.08 20.66c0 .96.78 1.74 1.74 1.74s1.74-.78 1.74-1.74l1.11-27.32Z"/><g><path d="m174.99 113.19-69.74 40.26c-1.42.82-1.42 2.15 0 2.97l69.74 40.26c.68.39 1.55.59 2.44.61v-84.71c-.89.02-1.76.22-2.44.61Z" style="fill:#1a1a1a"/><path d="m249.88 153.45-69.74-40.26c-.75-.43-1.74-.63-2.71-.61v84.72c.98.02 1.97-.18 2.71-.61l69.74-40.26c1.42-.82 1.42-2.15 0-2.97Z" style="fill:#131313"/></g></g><path class="t" d="M202.12 5.36c-.45 0-.95.07-1.47.22-.98.28-1.96.59-2.95.92-1.41.47-2.82.98-4.24 1.54-.68.27-1.36.54-2.04.83-1.75.74-3.52 1.54-5.28 2.41-.69.34-1.38.69-2.08 1.05-1.41.73-2.82 1.51-4.23 2.32-.42.24-.83.49-1.25.73-.43.26-.87.52-1.3.78-2.02 1.24-4.04 2.55-6.05 3.95-.28.19-.56.39-.83.58-2 1.41-3.99 2.9-5.98 4.46-.53.42-1.06.84-1.59 1.27-1.28 1.04-2.55 2.1-3.82 3.2-1.54 1.33-2.81 3.04-3.65 4.79l-2.76-1.59-6.6-3.81c.06-.13.13-.26.2-.39.84-1.6 2.03-3.13 3.44-4.35 6.8-5.89 13.81-10.92 20.82-14.97 7.01-4.05 14.02-7.11 20.82-9.08 1.23-.36 2.3-.28 3.11.17l6.54 3.77s.03.02.04.02l.11.07c.43.26.78.63 1.04 1.1Z"/><path class="r" d="m156.49 76.91-.96-.39h-.02l-1.11-.64-.22-.13-5.45-3.12c-.35-.16-.67-.34-.98-.56-1.85-1.31-2.88-3.67-2.88-6.72V33.34c0-1.35.41-2.86 1.13-4.33l6.6 3.81 2.76 1.59c-.7 1.46-1.11 2.95-1.11 4.29v32c0 1.55.26 2.92.77 4.07.37.84.87 1.56 1.48 2.14Z"/><path class="n" d="m201.4 4.49-8.16 4.42v25.34c0 3.65-1.46 8-4.07 12.06l-18.1 28.28c-1.89 2.96-4.94 4.72-6.83 3.94l-9.52-3.89-.34 1.25c-1.88-1.31-2.92-3.68-2.92-6.75v-32c0-1.33.4-2.83 1.11-4.29.84-1.75 2.12-3.46 3.65-4.79 6.8-5.89 13.81-10.92 20.82-14.97 7.01-4.05 14.02-7.11 20.82-9.07.52-.15 1.01-.22 1.47-.22s.87.07 1.24.21l.83.48Z"/><path class="v" d="M202.62 7.6v32.01c0 3.65-1.47 8-4.07 12.06l-18.1 28.29c-1.89 2.96-4.94 4.72-6.83 3.94l-17.14-6.99-.96-.39h-.02c-.4-.17-.77-.38-1.12-.61-.05-.04-.1-.07-.15-.11-.02-.02-.04-.03-.06-.05-.12-.09-.24-.19-.35-.29-.04-.04-.08-.07-.12-.11-.05-.04-.09-.09-.14-.13l-.1-.1c-.11-.12-.22-.25-.33-.38-.03-.04-.06-.07-.09-.11-.06-.07-.11-.15-.17-.23-.02-.03-.05-.07-.07-.1-.02-.03-.05-.07-.07-.11-.03-.05-.07-.1-.1-.16-.03-.04-.05-.09-.08-.13l-.18-.33c-.03-.05-.05-.11-.08-.16-.06-.13-.12-.26-.17-.39-.02-.04-.04-.09-.05-.14 0-.02-.02-.04-.02-.06-.02-.04-.03-.09-.05-.13-.01-.03-.02-.07-.04-.1l-.06-.18-.06-.18c-.01-.03-.02-.06-.03-.1-.01-.05-.03-.11-.04-.16v-.02c-.02-.07-.03-.13-.05-.2-.01-.06-.03-.12-.04-.18-.02-.08-.03-.16-.05-.24-.02-.09-.03-.17-.04-.25 0-.05-.02-.1-.02-.15l-.03-.18c-.02-.15-.04-.31-.05-.47 0-.06-.01-.11-.01-.17 0-.04 0-.09-.01-.13 0-.09-.01-.18-.01-.27 0-.18-.01-.36-.01-.55V37.14c0-1.33.4-2.83 1.11-4.29 0-.01.01-.02.02-.04.06-.13.12-.25.19-.38.05-.09.09-.18.14-.27.05-.1.11-.19.16-.29.04-.06.07-.12.11-.19.03-.05.06-.11.1-.16.06-.1.12-.19.18-.29.05-.08.11-.17.17-.25.08-.13.17-.25.26-.38.07-.1.15-.21.23-.31.08-.1.15-.2.24-.3.05-.06.1-.13.16-.19.13-.16.26-.31.39-.46.15-.17.31-.34.47-.5.13-.13.26-.26.39-.38.14-.14.29-.27.44-.4 6.8-5.89 13.81-10.92 20.82-14.97 7.01-4.05 14.02-7.11 20.82-9.07.52-.15 1.01-.22 1.47-.22s.87.07 1.24.21c.12.04.24.1.35.15.02 0 .03.02.04.02l.11.07c.11.07.22.15.33.23.28.23.52.52.71.87.33.6.51 1.35.51 2.25Z"/><path class="p" d="M198.75 13.1v27.16c0 3.1-1.24 6.79-3.45 10.24l-15.36 24c-1.61 2.51-4.19 4-5.8 3.35l-15.36-6.27c-.35-.14-.67-.32-.97-.52-1.6-1.11-2.48-3.12-2.48-5.73V38.17c0-1.13.34-2.4.94-3.64.71-1.49 1.8-2.93 3.1-4.06 5.77-5 11.72-9.27 17.67-12.7 5.95-3.43 11.9-6.04 17.67-7.7.44-.13.86-.19 1.24-.19s.74.06 1.05.18c1.09.4 1.74 1.48 1.74 3.05Z"/><path d="M189.23 38.7c-.89-.65-2.11-.77-3.64-.33 1.26-1.28 2.21-2.68 2.87-4.21.65-1.52.98-2.94.98-4.25 0-.83-.15-1.57-.43-2.22-.29-.65-.7-1.15-1.23-1.48-.53-.34-1.17-.49-1.93-.46-.75.03-1.6.32-2.53.86l-.85.49v-4.35l-2.7 1.56v4.35l-3.28 1.89V26.2l-2.7 1.56v4.35l-4.82 2.78V61.7l4.82-2.78v4.51l2.7-1.56v-4.52l3.28-1.9v4.52l1.04-.6 1.66-.96v-4.53c.98-.61 1.91-1.29 2.8-2.06.31-.27.61-.55.9-.83.68-.67 1.3-1.36 1.85-2.09.79-1.04 1.42-2.11 1.87-3.23.18-.44.32-.89.43-1.33.17-.68.25-1.36.25-2.05 0-1.76-.45-2.97-1.34-3.62Zm-15.05-2.36 7.18-4.14c.4-.23.77-.37 1.11-.43.36-.06.69-.02.98.13.57.28.85.93.85 1.96s-.31 2.07-.93 3.03c-.28.43-.58.81-.91 1.15-.41.42-.85.77-1.34 1.05l-4.64 2.68-2.31 1.33v-6.76Zm10.88 9.54c-.18.53-.42 1.04-.72 1.53s-.66.94-1.08 1.36c-.25.25-.52.48-.8.68-.18.13-.36.25-.55.36l-2.15 1.24-5.59 3.23v-7.06l2.31-1.33 5.7-3.29c.1-.06.19-.11.28-.15.34-.17.67-.26.96-.29.38-.03.7.04.98.21.28.17.5.42.66.77.16.35.25.76.25 1.24s-.09.98-.26 1.51Z" style="fill:url(#f)"/><g><path class="t" d="M199.74 72.13c.37 0 .77.06 1.2.18.8.23 1.6.48 2.41.75 1.15.38 2.3.8 3.46 1.25.55.22 1.11.44 1.66.68 1.43.6 2.87 1.26 4.31 1.97.56.28 1.13.56 1.69.86 1.15.6 2.3 1.23 3.45 1.89l1.02.6c.35.21.71.42 1.06.64 1.65 1.01 3.29 2.08 4.93 3.22.23.16.45.32.68.48 1.63 1.15 3.26 2.36 4.87 3.63.43.34.86.68 1.3 1.03 1.04.85 2.08 1.72 3.11 2.61 1.25 1.09 2.29 2.48 2.98 3.9l2.25-1.3 5.38-3.1c-.05-.11-.1-.21-.16-.32-.68-1.3-1.65-2.55-2.8-3.55-5.55-4.8-11.26-8.91-16.98-12.21-5.72-3.3-11.43-5.8-16.98-7.4-1.01-.29-1.88-.22-2.53.14l-5.34 3.08-.04.02-.09.05c-.35.21-.64.51-.85.9Z"/><path class="r" d="m236.95 130.48.78-.32h.02l.9-.52.18-.1 4.45-2.55c.28-.13.55-.28.8-.46 1.51-1.07 2.35-2.99 2.35-5.48v-26.1c0-1.1-.33-2.33-.92-3.53l-5.38 3.1-2.25 1.3c.57 1.19.9 2.41.9 3.5v26.1c0 1.27-.22 2.38-.63 3.32-.3.68-.71 1.27-1.21 1.74Z"/><path class="n" d="m200.32 71.42 6.65 3.6v20.67c0 2.98 1.19 6.52 3.32 9.84l14.76 23.07c1.55 2.41 4.03 3.85 5.57 3.22l7.77-3.17.27 1.02c1.54-1.07 2.38-3 2.38-5.51v-26.1c0-1.09-.33-2.3-.9-3.5-.69-1.43-1.73-2.82-2.98-3.9-5.55-4.8-11.26-8.91-16.98-12.21-5.72-3.3-11.43-5.8-16.98-7.4-.42-.12-.83-.18-1.2-.18s-.71.06-1.01.17l-.68.39Z"/><path class="v" d="M199.32 73.96v26.1c0 2.98 1.2 6.52 3.32 9.84l14.76 23.07c1.55 2.41 4.03 3.85 5.57 3.22l13.98-5.7.78-.32h.02c.32-.14.63-.31.91-.5s.08-.06.12-.09c.02-.01.04-.03.05-.04.1-.08.19-.15.29-.24.03-.03.07-.06.1-.09l.11-.11.08-.08c.09-.1.18-.2.27-.31.02-.03.05-.06.07-.09.05-.06.09-.12.14-.18.02-.03.04-.05.06-.08l.06-.09c.03-.04.05-.09.08-.13.02-.04.04-.07.06-.11.05-.09.1-.18.14-.27.02-.04.04-.09.07-.13.05-.1.09-.21.14-.32.02-.04.03-.07.04-.11 0-.02.01-.03.02-.05.01-.04.03-.07.04-.11l.03-.09c.02-.05.03-.09.05-.14.02-.05.03-.1.05-.15 0-.03.02-.05.02-.08.01-.04.02-.09.04-.13v-.02c.02-.06.03-.11.05-.17l.03-.15c.01-.06.03-.13.04-.19.01-.07.02-.14.04-.2 0-.04.01-.08.02-.12 0-.05.01-.1.02-.15.02-.13.03-.26.04-.39 0-.05 0-.09.01-.14v-.11c0-.07 0-.15.01-.22V98.04c0-1.09-.33-2.3-.9-3.5l-.02-.03c-.05-.1-.1-.21-.16-.31-.04-.07-.08-.15-.12-.22-.04-.08-.09-.16-.13-.24l-.09-.15c-.03-.04-.05-.09-.08-.13l-.15-.24c-.04-.07-.09-.14-.13-.2-.07-.1-.14-.21-.21-.31-.06-.08-.12-.17-.18-.25-.06-.08-.13-.17-.19-.25-.04-.05-.08-.11-.13-.16-.1-.13-.21-.25-.32-.37-.12-.14-.25-.27-.38-.41-.11-.11-.21-.21-.32-.31l-.36-.33c-5.55-4.8-11.26-8.91-16.98-12.21-5.72-3.3-11.43-5.8-16.98-7.4-.42-.12-.83-.18-1.2-.18s-.71.06-1.01.17c-.1.04-.19.08-.28.13-.01 0-.02.01-.04.02l-.09.05c-.09.06-.18.12-.27.19-.23.19-.43.43-.58.71-.27.49-.41 1.1-.41 1.83Z"/><path class="p" d="M202.48 78.45v22.15c0 2.53 1.01 5.53 2.81 8.35l12.53 19.58c1.31 2.05 3.42 3.26 4.73 2.73l12.53-5.11c.28-.12.54-.26.79-.43 1.3-.91 2.02-2.54 2.02-4.67V98.9c0-.92-.28-1.96-.76-2.97-.58-1.21-1.47-2.39-2.53-3.31-4.71-4.08-9.56-7.56-14.41-10.36s-9.7-4.92-14.41-6.28c-.36-.1-.7-.15-1.02-.15s-.6.05-.86.15c-.89.33-1.42 1.2-1.42 2.49Z"/><path d="M208.33 93c.04-.29.27-.38.61-.18l2.63 1.39c.07.04.13.06.2.08.22-.54.51-1.01.84-1.4.06-.19.03-.45-.09-.72l-1.16-3.32c-.18-.37-.14-.74.11-.8l2.06-.62c.1-.03.21 0 .32.06.16.1.33.27.43.5l1.89 3.09.2.31c.56.04 1.14.15 1.76.36.17-.01.3-.13.34-.36l.81-2.35c.04-.29.27-.38.53-.23.02.02.05.03.08.05l2.56 1.88c.29.21.5.65.46.96l.11 3.02c-.02.09 0 .2.02.31.58.6 1.14 1.25 1.64 1.93.06.06.12.1.19.14.14.08.27.11.39.07h2.29c.1-.04.22-.02.33.05.16.1.32.28.43.49l1.56 3.27c.18.39.13.75-.1.82l-1.74 1.18-.17.13c.25.79.44 1.58.56 2.35.09.26.27.51.47.67l2.44 2.32c.29.22.5.66.46.97l-.35 2.76c-.04.29-.28.39-.62.18l-2.63-1.4c-.07-.04-.13-.07-.2-.08-.22.54-.51 1.01-.84 1.4-.06.19-.03.46.09.72l1.16 3.32c.18.37.13.74-.11.81l-2.06.61c-.1.03-.21 0-.33-.06-.16-.09-.32-.27-.43-.49l-1.89-3.1-.2-.3c-.56-.05-1.14-.16-1.76-.37-.17.01-.3.13-.33.35l-.81 2.35c-.04.29-.27.39-.61.19l-2.56-1.89c-.29-.22-.5-.65-.46-.97l-.1-3.02c.01-.09 0-.2-.02-.31-.58-.59-1.14-1.24-1.64-1.93-.06-.06-.12-.1-.19-.14-.14-.08-.27-.11-.39-.07h-2.29c-.1.05-.22.02-.34-.05-.16-.09-.32-.27-.43-.49l-1.55-3.28c-.19-.39-.14-.74.1-.82l1.74-1.17.17-.14c-.25-.79-.44-1.58-.56-2.35-.09-.26-.27-.51-.48-.66l-2.44-2.33c-.29-.22-.5-.65-.46-.97l.36-2.75Zm11.02 13.55c.17.13.34.24.5.33 1.83 1.06 3.44.43 3.7-1.57.28-2.19-1.13-5.17-3.17-6.67-.17-.13-.34-.23-.5-.33-1.83-1.07-3.44-.43-3.7 1.58-.28 2.18 1.13 5.16 3.17 6.66Z" style="fill:url(#g)"/></g><g><path class="t" d="M158.02 98.96c-.32 0-.68.05-1.05.16-.7.2-1.41.42-2.11.66-1.01.33-2.02.7-3.04 1.1-.49.19-.97.39-1.46.6-1.26.53-2.52 1.1-3.78 1.73-.49.24-.99.49-1.49.75-1.01.53-2.02 1.08-3.03 1.66-.3.17-.6.35-.9.53-.31.18-.62.37-.93.56-1.45.88-2.89 1.83-4.33 2.83l-.6.42c-1.43 1.01-2.86 2.07-4.28 3.19-.38.3-.76.6-1.14.91-.92.74-1.83 1.51-2.73 2.29-1.1.95-2.01 2.17-2.62 3.43l-1.98-1.14-4.72-2.73c.05-.09.09-.19.14-.28.6-1.14 1.45-2.24 2.46-3.12 4.87-4.22 9.89-7.82 14.91-10.72 5.02-2.9 10.04-5.09 14.91-6.5.88-.25 1.65-.2 2.23.12l4.69 2.7s.02.01.03.02l.08.05c.31.19.56.45.74.79Z"/><path class="r" d="m125.34 150.19-.69-.28h-.02l-.79-.46-.16-.09-3.9-2.24c-.25-.11-.48-.25-.7-.4-1.33-.94-2.06-2.62-2.06-4.81v-22.92c0-.97.29-2.05.81-3.1l4.72 2.73 1.98 1.14c-.5 1.05-.79 2.11-.79 3.07v22.92c0 1.11.19 2.09.55 2.91.26.6.62 1.11 1.06 1.53Z"/><path class="n" d="m157.5 98.34-5.84 3.16v18.15c0 2.62-1.05 5.73-2.91 8.64l-12.96 20.25c-1.36 2.12-3.54 3.38-4.89 2.82l-6.82-2.78-.24.89c-1.35-.94-2.09-2.63-2.09-4.84v-22.92c0-.96.29-2.02.79-3.07.6-1.25 1.52-2.47 2.62-3.43 4.87-4.22 9.89-7.82 14.91-10.72 5.02-2.9 10.04-5.09 14.91-6.5.37-.11.73-.16 1.05-.16s.62.05.89.15l.59.34Z"/><path class="v" d="M158.38 100.57v22.92c0 2.61-1.05 5.73-2.91 8.64l-12.96 20.25c-1.36 2.12-3.54 3.38-4.89 2.82l-12.27-5.01-.69-.28h-.02c-.28-.12-.55-.27-.8-.44s-.07-.05-.1-.08c-.02-.01-.03-.02-.05-.03-.09-.07-.17-.14-.25-.21-.03-.03-.06-.05-.09-.08s-.07-.06-.1-.1l-.07-.07-.24-.27c-.02-.03-.04-.05-.06-.08-.04-.05-.08-.11-.12-.16-.02-.02-.03-.05-.05-.07-.02-.02-.03-.05-.05-.08-.02-.04-.05-.08-.07-.11-.02-.03-.04-.06-.06-.1-.04-.08-.09-.16-.13-.24l-.06-.12c-.04-.09-.08-.18-.12-.28-.01-.03-.03-.06-.04-.1 0-.01-.01-.03-.02-.04l-.03-.09c0-.02-.02-.05-.03-.08-.01-.04-.03-.08-.04-.13-.01-.04-.03-.09-.04-.13 0-.02-.01-.05-.02-.07l-.03-.12v-.02s-.03-.1-.04-.14c-.01-.04-.02-.09-.03-.13-.01-.06-.02-.11-.03-.17l-.03-.18c0-.03-.01-.07-.02-.11 0-.04-.01-.09-.02-.13-.01-.11-.03-.22-.04-.34v-.22c0-.06 0-.13-.01-.19V121.69c0-.96.29-2.02.79-3.07v-.03c.06-.09.1-.18.15-.27.03-.06.07-.13.1-.19l.12-.21c.03-.05.05-.09.08-.13.02-.04.05-.08.07-.12.04-.07.09-.14.13-.21l.12-.18c.06-.09.12-.18.19-.27.05-.07.11-.15.16-.22.06-.07.11-.14.17-.22.04-.05.07-.09.11-.14.09-.11.18-.22.28-.33l.33-.36.28-.28c.1-.1.21-.19.32-.29 4.87-4.22 9.89-7.82 14.91-10.72 5.02-2.9 10.04-5.09 14.91-6.5.37-.11.72-.16 1.05-.16s.62.05.89.15c.09.03.17.07.25.11.01 0 .02.01.03.02l.08.05c.08.05.16.1.23.17.2.17.37.37.51.62.24.43.36.97.36 1.61Z"/><path class="p" d="M155.61 104.5v19.45c0 2.22-.89 4.86-2.47 7.33l-11 17.19c-1.15 1.8-3 2.87-4.15 2.4l-11-4.49c-.25-.1-.48-.23-.69-.37-1.14-.8-1.78-2.23-1.78-4.1v-19.45c0-.81.24-1.72.67-2.61.51-1.06 1.29-2.1 2.22-2.91 4.13-3.58 8.39-6.64 12.65-9.1s8.52-4.32 12.65-5.51c.32-.09.62-.14.89-.14s.53.04.75.13c.78.29 1.25 1.06 1.25 2.18Z"/><g><path d="M131.96 127.17c.5-.29.97-.43 1.39-.46v-.09c0-4.21 2.98-9.34 6.65-11.46 2.95-1.7 5.45-.94 6.32 1.62.23-.17.46-.33.69-.47 2.42-1.4 4.38-.28 4.38 2.5s-1.96 6.16-4.38 7.56c-1.21.7-13.61 7.86-15.04 8.69-1.9 1.09-3.43.22-3.43-1.96s1.54-4.83 3.43-5.92Z" style="fill:url(#h)"/><path class="m" d="m145.37 124.2 2.91 3.96-1.41.81v6.77l-2.99 1.72v-6.77l-1.41.82 2.9-7.31zM138.36 140.18l-2.91-3.95 1.42-.82v-6.76l2.98-1.72v6.76l1.41-.82-2.9 7.31z"/></g></g></g></g></svg>