<?xml version="1.0" encoding="utf-8"?><svg version="1.1" id="Layer_1" xmlns="http://www.w3.org/2000/svg" x="0" y="0" viewBox="0 0 353.6 345.3" style="enable-background:new 0 0 353.6 345.3" xml:space="preserve"><style>.st2{fill:#545454}.st4{fill:#363636}.st6{fill:#525252}.st7{fill:#454545}.st8{fill:#d52d64}.st11{fill:#666}.st12{fill:#8f5fc0}.st13{fill:#939292}.st14{fill:#333}.st18{fill:#cbcbcb}</style><path id="Floor_00000094592450717003904850000011530798619624920201_" d="M51.8 316.6c69 38.3 181 38.3 250 0s69-100.3 0-138.5c-69-38.3-181-38.3-250 0-69.1 38.3-69.1 100.3 0 138.5z" style="opacity:.43;fill:#080808"/><g id="Vault_00000075852446558741350150000016814969173611093923_"><path id="XMLID_00000015325393470299739730000004127569766458314121_" d="m173.6 93.1-87.1 50.3c-1.8 1-3.2 3.5-3.2 5.6v97c0 2.1 1.4 4.5 3.2 5.6l87.1 50.3c1.8 1 4.7 1 6.4 0l87.1-50.3c1.8-1 3.2-3.5 3.2-5.6v-97.1c0-2.1-1.4-4.5-3.2-5.6L180 93.1c-1.8-1-4.7-1-6.4 0z" style="fill:#9f9f9f"/><path id="XMLID_00000097482750966786864200000005115168734882088364_" class="st2" d="M176.8 198.1v104.5c-1.2 0-2.3-.3-3.2-.8l-87.1-50.3c-1.8-1-3.2-3.5-3.2-5.6V149c0-1.9 1.3-4.2 2.9-5.4-1.4 1-1.3 2.5.3 3.5l87.1 50.3c.9.5 2 .7 3.2.7z"/><path id="XMLID_00000003082246121443005410000015483640421719576759_" d="M267.1 143.4 180 93.1c-1.8-1-4.7-1-6.4 0l-87.1 50.3c-1.8 1-1.8 2.7 0 3.7l87.1 50.3c1.8 1 4.7 1 6.4 0l87.1-50.3c1.8-1 1.8-2.7 0-3.7z" style="fill:#797979"/><path id="XMLID_00000059290951954506252480000012053182414281243817_" class="st4" d="m184.4 201.8 78.2-45.2c.9-.5 1.6-.1 1.6.9v86.9c0 1-.7 2.3-1.6 2.8l-78.2 45.2c-.9.5-1.6.1-1.6-.9v-86.9c0-1.1.7-2.3 1.6-2.8z"/><linearGradient id="XMLID_00000025443108546056124350000011077214992022347699_" gradientUnits="userSpaceOnUse" x1="184.3041" y1="224.4861" x2="262.7881" y2="224.4861"><stop offset="0" style="stop-color:#dd2e5a"/><stop offset=".9836" style="stop-color:#e47b1a"/></linearGradient><path id="XMLID_00000077309577399008529070000005123390203437454736_" style="fill:url(#XMLID_00000025443108546056124350000011077214992022347699_)" d="M184.3 204.6c0-.5.4-1.3.9-1.5l77.6-44.8v86.1c0 .5-.4 1.3-.9 1.5l-77.6 44.8v-86.1z"/><g id="XMLID_00000145759866016253157870000003051996735916201147_"><g id="XMLID_00000097482447457584293750000008746158075394593981_"><g id="XMLID_00000152247998360869327920000014970164973322751398_"><path id="XMLID_00000036964170776287866670000016773908174133721216_" class="st6" d="m183.1 209.5 17-9.8c.3-.2.8-.2 1.1 0l2.8 1.6-17.8 10-3.1-1.8z"/><path id="XMLID_00000106840792829141375250000004278431537056583835_" class="st4" d="M204.2 201.9v11.7c0 .6-.4 1.4-1 1.7l-17.1 9.9v-13.9l17.1-9.9c.6-.3 1-.1 1 .5z"/><path id="XMLID_00000137125303371417078780000011802530468316295053_" d="m183.1 209.5 3 1.8v13.9l-3-1.8z"/></g><path id="XMLID_00000163764834220650688780000013033493247219805605_" class="st6" d="M193.4 212.4c.8-.5 1.5-.1 1.5.9s-.7 2.1-1.5 2.6-1.5.1-1.5-.9.6-2.1 1.5-2.6z"/><path id="XMLID_00000057106439142514784340000007007927092972975500_" class="st6" d="M199.4 208.9c.8-.5 1.5-.1 1.5.9s-.7 2.1-1.5 2.6-1.5.1-1.5-.9c0-.9.7-2.1 1.5-2.6z"/></g><g id="XMLID_00000132772089530521693370000004637761787241392818_"><path id="XMLID_00000082370597023416767230000010208432094219061402_" class="st6" d="m182.8 209.7-4.2 2.4c-1.1.7-2.6.7-3.7 0l-3.1-1.8c-.3-.2-.8-.2-1.1 0l-2.7 1.6 6.9 3.7c1.1.7 2.6.7 3.7 0l7.2-4.2-3-1.7z"/><path id="XMLID_00000176036484031616830680000013183801567172221099_" class="st7" d="m168.7 225.9 6.2 3.6c1.1.7 2.6.7 3.7 0l7.2-4.2v-13.9l-7.2 4.2c-1.1.7-2.6.7-3.7 0l-6.2-3.6c-.5-.3-1-.1-1 .6v11.7c0 .6.5 1.3 1 1.6z"/><path id="XMLID_00000117647224704830377420000013097621746730866105_" class="st4" d="M176.8 230c.6 0 1.3-.2 1.8-.5l7.2-4.2v-13.9l-7.2 4.2c-.6.3-1.2.5-1.8.5V230z"/></g></g><g id="XMLID_00000137821903749361707030000007368039160884520868_"><g id="XMLID_00000071537596545344195220000008165615314180281218_"><g id="XMLID_00000120517474778064575500000002616361817217152155_"><path id="XMLID_00000075874814473643233540000004298788782187130555_" class="st6" d="m183.1 268.7 17-9.8c.3-.2.8-.2 1.1 0l2.8 1.6-17.8 10-3.1-1.8z"/><path id="XMLID_00000113341409999396413460000010603852269806718651_" class="st4" d="M204.2 261.1v11.7c0 .6-.4 1.4-1 1.7l-17.1 9.9v-13.9l17.1-9.9c.6-.3 1-.1 1 .5z"/><path id="XMLID_00000136398165589132598660000013923992970506122643_" d="m183.1 268.7 3 1.8v13.9l-3-1.7z"/></g><path id="XMLID_00000183966052242370485470000012147240314669075135_" class="st6" d="M193.4 271.6c.8-.5 1.5-.1 1.5.9s-.7 2.1-1.5 2.6-1.5.1-1.5-.9c0-.9.6-2.1 1.5-2.6z"/><path id="XMLID_00000183965141412654225130000001028225988778787753_" class="st6" d="M199.4 268.1c.8-.5 1.5-.1 1.5.9s-.7 2.1-1.5 2.6-1.5.1-1.5-.9c0-.9.7-2.1 1.5-2.6z"/></g><g id="XMLID_00000119103581365333386300000011662212482295602049_"><path id="XMLID_00000013163165782898038410000018121848905060927623_" class="st6" d="m182.8 268.9-4.2 2.4c-1.1.7-2.6.7-3.7 0l-3.1-1.8c-.3-.2-.8-.2-1.1 0l-2.7 1.6 6.9 3.7c1.1.7 2.6.7 3.7 0l7.2-4.2-3-1.7z"/><path id="XMLID_00000142885558290065825760000016973068712660399798_" class="st7" d="m168.7 285.1 6.2 3.6c1.1.7 2.6.7 3.7 0l7.2-4.2v-13.9l-7.2 4.2c-1.1.7-2.6.7-3.7 0l-6.2-3.6c-.5-.3-1-.1-1 .6v11.7c0 .6.5 1.3 1 1.6z"/><path id="XMLID_00000035488943760785271560000012505430046732933811_" class="st4" d="M176.8 289.2c.6 0 1.3-.2 1.8-.5l7.2-4.2v-13.9l-7.2 4.2c-.6.3-1.2.5-1.8.5v13.9z"/></g></g><g id="XMLID_00000143578646065092082210000012319650683897341587_"><path id="XMLID_00000126316668183309271830000003071225716104830125_" class="st4" d="m235.7 212.3.5-.9-3.1-1.8h-.1c-2.5-1.4-5.8-1.1-9.5 1-7.5 4.3-13.6 14.9-13.6 23.5 0 4.2 1.5 7.3 3.8 8.7l.1.1s.1 0 .1.1l3.1 1.8.5-.9c1.8 0 3.8-.6 6-1.9 7.5-4.3 13.6-14.9 13.6-23.5 0-2.6-.5-4.7-1.4-6.2z"/><ellipse id="XMLID_00000005254120176799762820000001046611789446341018_" transform="rotate(-60 227.0553 228.2557)" class="st4" cx="227.1" cy="228.2" rx="19.2" ry="11.1"/><ellipse id="XMLID_00000168075117371031662010000007217592743795780750_" transform="rotate(-60 226.5656 227.978)" class="st7" cx="226.6" cy="228" rx="19.2" ry="11.1"/><g id="XMLID_00000046340108776855682810000000142267961514029235_"><g id="XMLID_00000052787354245845999010000008914061144635544722_"><path id="XMLID_00000104703335005421385350000016580865849469514908_" class="st8" d="M228 217.5c-.3.1-.5-.1-.4-.6l.6-3.6c.1-.4.4-.9.7-1 .3-.1.5.1.4.6l-.6 3.6c-.1.5-.4.9-.7 1z"/></g><g id="XMLID_00000016075456136472705180000010143466691155986111_"><path id="XMLID_00000085940910870327631870000016151594413712560018_" class="st8" d="M222.8 221.4c-.2.1-.3 0-.4-.2l-1-2.4c-.1-.3 0-.8.3-1.1.3-.3.6-.4.7-.1l1 2.4c.1.3 0 .8-.3 1.1 0 .2-.1.3-.3.3z"/></g><g id="XMLID_00000163052917662964299920000002455517662832047262_"><path id="XMLID_00000029037937683087893490000017098295267833942418_" class="st8" d="M218.9 228.1h-.2l-2.3-.2c-.3 0-.3-.4-.2-.8.2-.4.5-.8.8-.7l2.3.2c.3 0 .3.4.2.8-.1.4-.3.7-.6.7z"/></g><g id="XMLID_00000023277700058801891630000001487512631728899982_"><path id="XMLID_00000041254610984738389030000013973446560652761511_" class="st8" d="M215.1 237.1c-.2.1-.4 0-.4-.3 0-.4.2-.9.5-1.1l2.6-2c.3-.2.6-.1.6.2 0 .4-.2.9-.5 1.1l-2.6 2c-.1.1-.2.1-.2.1z"/></g><g id="XMLID_00000109729023985344726140000001283398773456938159_"><path id="XMLID_00000033349785834518926790000003823855751779852724_" class="st8" d="M217.7 243.2h-.3c-.2-.2-.2-.6.1-1l2-3.5c.2-.4.6-.6.8-.5.2.2.2.6-.1 1l-2 3.5-.5.5z"/></g><g id="XMLID_00000044889271273918240490000009588977816772962718_"><path id="XMLID_00000108294411965915188740000008094513605096555144_" class="st8" d="M223.4 243.7c-.3.1-.5-.1-.4-.6l.6-3.6c.1-.4.4-.9.7-1 .3-.1.5.1.4.6l-.6 3.6c-.1.5-.4.9-.7 1z"/></g><g id="XMLID_00000120529520245404509050000017849962014836591791_"><path id="XMLID_00000039097126455112277710000012195037697947743892_" class="st8" d="M230.2 238.6c-.2.1-.3 0-.4-.2l-1-2.4c-.1-.3 0-.8.3-1.1.3-.3.6-.4.7-.1l1 2.4c.1.3 0 .8-.3 1.1l-.3.3z"/></g><g id="XMLID_00000062191048725923166430000015415696697698325160_"><path id="XMLID_00000132799596182901084070000012836905809500686722_" class="st8" d="M235.3 229.7h-.2l-2.3-.2c-.3 0-.3-.4-.2-.8.2-.4.5-.8.8-.7l2.3.2c.3 0 .3.4.2.8-.1.3-.3.6-.6.7z"/></g><g id="XMLID_00000179632708957388706800000010541365570992580031_"><path id="XMLID_00000156573897355912290610000017876585760182587294_" class="st8" d="M234.3 222.5c-.2.1-.4 0-.4-.3 0-.4.2-.9.5-1.1l2.6-2c.3-.2.6-.1.6.2 0 .4-.2.9-.5 1.1l-2.6 2c-.1 0-.2.1-.2.1z"/></g><g id="XMLID_00000094591491031555072410000008662713685796768904_"><path id="XMLID_00000001643682982586900140000002344821513860678789_" class="st8" d="M232.3 217.9h-.3c-.2-.2-.2-.6.1-1l2-3.5c.2-.4.6-.6.8-.5.2.2.2.6-.1 1l-2 3.5c-.1.3-.3.5-.5.5z"/></g></g><path id="XMLID_00000138532260149684092770000005637541502250007981_" class="st4" d="M233.1 219.9c-1.3-1.9-3.8-2.3-6.6-.7-4.2 2.4-7.5 8.3-7.5 13.1 0 3.4 1.7 5.4 4.2 5.4l5.8.1 7.3-13.4-3.2-4.5z"/><path id="XMLID_00000179606123344986018880000004200866187029315991_" class="st6" d="M231.5 224.1c-3.1 1.8-5.6 6.2-5.6 9.7 0 3.6 2.5 5 5.6 3.2 3.1-1.8 5.6-6.2 5.6-9.7 0-3.5-2.5-5-5.6-3.2z"/></g><path id="XMLID_00000101802702882020239220000016481210475104976058_" class="st4" d="M258.3 199.8c.1-2.5-1.2-4.8-3.3-6.1l-10.1-5.8c-.8-.4-1.8-.4-3 .3-2.4 1.4-4.3 4.7-4.3 7.4 0 1.5.6 2.5 1.5 2.9h.1l9.7 3.1c2.1.7 3.6 2.6 3.8 4.9l1.1 20.7c0 1 .8 1.7 1.7 1.7 1 0 1.7-.8 1.7-1.7l1.1-27.4z"/><path d="M174.1 103.7 104.4 144c-1.4.8-1.4 2.2 0 3l69.7 40.3c.7.4 1.6.6 2.4.6v-84.7c-.9-.1-1.7.1-2.4.5z" style="fill:#272727"/><path d="m249 144-69.7-40.3c-.7-.4-1.7-.6-2.7-.6v84.7c1 0 2-.2 2.7-.6L249 147c1.4-.9 1.4-2.2 0-3z" style="fill:#1e1e1e"/></g><path class="st11" d="M202.1 5.4c-.5 0-1 .1-1.5.2l-3 .9-4.2 1.5c-.7.3-1.4.5-2 .8-1.8.7-3.5 1.5-5.3 2.4-.7.3-1.4.7-2.1 1.1-1.4.7-2.8 1.5-4.2 2.3-.4.2-.8.5-1.3.7-.4.3-.9.5-1.3.8-2 1.2-4 2.6-6.1 3.9-.3.2-.6.4-.8.6-2 1.4-4 2.9-6 4.5-.5.4-1.1.8-1.6 1.3-1.3 1-2.6 2.1-3.8 3.2-1.5 1.3-2.8 3-3.7 4.8l-2.8-1.6L146 29c.1-.1.1-.3.2-.4.8-1.6 2-3.1 3.4-4.4 6.8-5.9 13.8-10.9 20.8-15 7-4 14-7.1 20.8-9.1 1.2-.4 2.3-.3 3.1.2l6.5 3.8.1.1c.6.3 1 .7 1.2 1.2z"/><path class="st2" d="m156.5 76.9-1-.4-1.1-.6-.2-.1-5.5-3.1c-.3-.2-.7-.3-1-.6-1.9-1.3-2.9-3.7-2.9-6.7v-32c0-1.3.4-2.9 1.1-4.3l6.6 3.8 2.8 1.6c-.7 1.5-1.1 3-1.1 4.3v32c0 1.6.3 2.9.8 4.1.4.7.9 1.4 1.5 2z"/><path class="st12" d="m201.4 4.5-8.2 4.4v25.3c0 3.7-1.5 8-4.1 12.1L171 74.6c-1.9 3-4.9 4.7-6.8 3.9l-9.5-3.9-.3 1.2c-1.9-1.3-2.9-3.7-2.9-6.8V37c0-1.3.4-2.8 1.1-4.3.8-1.8 2.1-3.5 3.7-4.8 6.8-5.9 13.8-10.9 20.8-15 7-4 14-7.1 20.8-9.1.5-.2 1-.2 1.5-.2s.9.1 1.2.2l.8.7z"/><path class="st13" d="M202.6 7.6v32c0 3.7-1.5 8-4.1 12.1l-18 28.3c-1.9 3-4.9 4.7-6.8 3.9l-17.1-7-1-.4c-.4-.2-.8-.4-1.1-.6-.1 0-.1-.1-.1-.1h-.1c-.1-.1-.2-.2-.4-.3l-.1-.1-.1-.1-.1-.1c-.1-.1-.2-.2-.3-.4l-.1-.1-.2-.2s0-.1-.1-.1c0 0 0-.1-.1-.1 0-.1-.1-.1-.1-.2l-.1-.1c-.1-.1-.1-.2-.2-.3 0-.1-.1-.1-.1-.2-.1-.1-.1-.3-.2-.4 0 0 0-.1-.1-.1V72.7c0-.1 0-.1-.1-.2 0-.1 0-.1-.1-.2V72c0-.1 0-.1-.1-.2V70.9c0-.2 0-.3-.1-.5V37.3c0-1.3.4-2.8 1.1-4.3.1-.1.1-.3.2-.4 0-.1.1-.2.1-.3.1-.1.1-.2.2-.3 0-.1.1-.1.1-.2s.1-.1.1-.2c.1-.1.1-.2.2-.3.1-.1.1-.2.2-.2.1-.1.2-.3.3-.4.1-.1.1-.2.2-.3.1-.1.2-.2.2-.3l.2-.2c.1-.2.3-.3.4-.5l.5-.5.4-.4.4-.4c6.8-5.9 13.8-10.9 20.8-15 7-4 14-7.1 20.8-9.1.5-.2 1-.2 1.5-.2s.9.1 1.2.2c.1 0 .2.1.3.2l.1.1c.1.1.2.1.3.2.3.2.5.5.7.9.3.6.5 1.3.5 2.2z"/><path class="st14" d="M198.8 13.1v27.2c0 3.1-1.2 6.8-3.5 10.2l-15.4 24c-1.6 2.5-4.2 4-5.8 3.3l-15.4-6.3c-.3-.1-.7-.3-1-.5-1.6-1.1-2.5-3.1-2.5-5.7V38.2c0-1.1.3-2.4.9-3.6.7-1.5 1.8-2.9 3.1-4.1 5.8-5 11.7-9.3 17.7-12.7 6-3.4 11.9-6 17.7-7.7.4-.1.9-.2 1.2-.2.4 0 .7.1 1.1.2 1.2.4 1.9 1.4 1.9 3z"/><linearGradient id="SVGID_1_" gradientUnits="userSpaceOnUse" x1="168.9725" y1="43.1011" x2="190.5742" y2="43.1011"><stop offset="0" style="stop-color:#dd2e5a"/><stop offset=".9836" style="stop-color:#e47b1a"/></linearGradient><path d="M189.2 38.7c-.9-.7-2.1-.8-3.6-.3 1.3-1.3 2.2-2.7 2.9-4.2.7-1.5 1-2.9 1-4.2 0-.8-.1-1.6-.4-2.2-.3-.7-.7-1.1-1.2-1.5-.5-.3-1.2-.5-1.9-.5-.8 0-1.6.3-2.5.9l-.9.5v-4.3l-2.7 1.6v4.3l-3.3 1.9v-4.3l-2.7 1.6v4.3l-4.8 2.8v26.8l4.8-2.8v4.5l2.7-1.6v-4.5l3.3-1.9V60l1-.6 1.7-1v-4.5c1-.6 1.9-1.3 2.8-2.1.3-.3.6-.5.9-.8.7-.7 1.3-1.4 1.9-2.1.8-1 1.4-2.1 1.9-3.2.2-.4.3-.9.4-1.3.2-.7.2-1.4.2-2-.1-1.8-.6-3-1.5-3.7zm-15-2.4 7.2-4.1c.4-.2.8-.4 1.1-.4.4-.1.7 0 1 .1.6.3.9.9.9 2s-.3 2.1-.9 3l-.9 1.2c-.4.4-.9.8-1.3 1l-4.6 2.7-2.3 1.3v-6.8zm10.9 9.6c-.2.5-.4 1-.7 1.5-.3.5-.7.9-1.1 1.4-.3.3-.5.5-.8.7-.2.1-.4.2-.5.4l-2.2 1.2-5.6 3.2v-7.1l2.3-1.3 5.7-3.3c.1-.1.2-.1.3-.2.3-.2.7-.3 1-.3.4 0 .7 0 1 .2.3.2.5.4.7.8.2.3.2.8.2 1.2-.1.6-.2 1.1-.3 1.6z" style="fill:url(#SVGID_1_)"/><g><path class="st11" d="M199.7 82.1c.4 0 .8.1 1.2.2.8.2 1.6.5 2.4.7 1.1.4 2.3.8 3.5 1.3.6.2 1.1.4 1.7.7 1.4.6 2.9 1.3 4.3 2 .6.3 1.1.6 1.7.9 1.1.6 2.3 1.2 3.5 1.9.3.2.7.4 1 .6.4.2.7.4 1.1.6 1.6 1 3.3 2.1 4.9 3.2.2.2.5.3.7.5 1.6 1.1 3.3 2.4 4.9 3.6.4.3.9.7 1.3 1 1 .8 2.1 1.7 3.1 2.6 1.3 1.1 2.3 2.5 3 3.9l2.3-1.3 5.4-3.1c-.1-.1-.1-.2-.2-.3-.7-1.3-1.7-2.6-2.8-3.5-5.5-4.8-11.3-8.9-17-12.2-5.7-3.3-11.4-5.8-17-7.4-1-.3-1.9-.2-2.5.1l-5.3 3.1-.1.1c-.6.1-.8.4-1.1.8z"/><path class="st2" d="m236.9 140.5.8-.3.9-.5.2-.1 4.4-2.5c.3-.1.5-.3.8-.5 1.5-1.1 2.3-3 2.3-5.5V105c0-1.1-.3-2.3-.9-3.5l-5.4 3.1-2.3 1.3c.6 1.2.9 2.4.9 3.5v26.1c0 1.3-.2 2.4-.6 3.3-.1.6-.5 1.2-1.1 1.7z"/><path class="st12" d="M200.3 81.4 207 85v20.7c0 3 1.2 6.5 3.3 9.8l14.8 23.1c1.5 2.4 4 3.8 5.6 3.2l7.8-3.2.3 1c1.5-1.1 2.4-3 2.4-5.5V108c0-1.1-.3-2.3-.9-3.5-.7-1.4-1.7-2.8-3-3.9-5.5-4.8-11.3-8.9-17-12.2-5.7-3.3-11.4-5.8-17-7.4-.4-.1-.8-.2-1.2-.2-.4 0-.7.1-1 .2l-.8.4z"/><path class="st13" d="M199.3 84v26.1c0 3 1.2 6.5 3.3 9.8l14.8 23.1c1.5 2.4 4 3.8 5.6 3.2l14-5.7.8-.3c.3-.1.6-.3.9-.5l.1-.1h.1c.1-.1.2-.2.3-.2l.1-.1.1-.1.1-.1.3-.3s0-.1.1-.1c0-.1.1-.1.1-.2 0 0 0-.1.1-.1 0 0 0-.1.1-.1l.1-.1s0-.1.1-.1c.1-.1.1-.2.1-.3 0 0 0-.1.1-.1 0-.1.1-.2.1-.3V108.5c0-1.1-.3-2.3-.9-3.5-.1-.1-.1-.2-.2-.3 0-.1-.1-.1-.1-.2s-.1-.2-.1-.2c0-.1-.1-.1-.1-.2l-.1-.1c0-.1-.1-.2-.1-.2 0-.1-.1-.1-.1-.2-.1-.1-.1-.2-.2-.3-.1-.1-.1-.2-.2-.3-.1-.1-.1-.2-.2-.2 0-.1-.1-.1-.1-.2-.1-.1-.2-.3-.3-.4l-.4-.4-.3-.3c-.1-.1-.2-.2-.4-.3-5.5-4.8-11.3-8.9-17-12.2-5.7-3.3-11.4-5.8-17-7.4-.4-.1-.8-.2-1.2-.2-.4 0-.7.1-1 .2-.1 0-.2.1-.3.1l-.1.1c-.1.1-.2.1-.3.2-.2.2-.4.4-.6.7.1-.1-.1.5-.1 1.3z"/><path class="st14" d="M202.5 88.4v22.1c0 2.5 1 5.5 2.8 8.3l12.5 19.6c1.3 2 3.4 3.3 4.7 2.7L235 136c.3-.1.5-.3.8-.4 1.3-.9 2-2.5 2-4.7v-22.1c0-.9-.3-2-.8-3-.6-1.2-1.5-2.4-2.5-3.3-4.7-4.1-9.6-7.6-14.4-10.4-4.9-2.8-9.7-4.9-14.4-6.3-.4-.1-.7-.2-1-.2-.3 0-.6 0-.9.1-.8.6-1.3 1.5-1.3 2.7z"/><linearGradient id="SVGID_00000080910276235026945900000009619259575296989334_" gradientUnits="userSpaceOnUse" x1="140.8421" y1="112.5936" x2="164.6516" y2="112.5936" gradientTransform="matrix(-1 0 0 1 372.623 0)"><stop offset="0" style="stop-color:#b5296c"/><stop offset=".9957" style="stop-color:#da8b1e"/></linearGradient><path style="fill:url(#SVGID_00000080910276235026945900000009619259575296989334_)" d="M208.3 103c0-.3.3-.4.6-.2l2.6 1.4c.1 0 .1.1.2.1.2-.5.5-1 .8-1.4.1-.2 0-.5-.1-.7l-1.2-3.3c-.2-.4-.1-.7.1-.8l2.1-.6c.1 0 .2 0 .3.1.2.1.3.3.4.5l1.9 3.1.2.3c.6 0 1.1.1 1.8.4.2 0 .3-.1.3-.4l.8-2.4c0-.3.3-.4.5-.2l.1.1 2.6 1.9c.3.2.5.7.5 1l.1 3v.3c.6.6 1.1 1.2 1.6 1.9.1.1.1.1.2.1.1.1.3.1.4.1h2.3c.1 0 .2 0 .3.1.2.1.3.3.4.5l1.6 3.3c.2.4.1.8-.1.8l-1.6 1-.2.1.6 2.4c.1.3.3.5.5.7l2.4 2.3c.3.2.5.7.5 1l-.4 2.8c0 .3-.3.4-.6.2l-2.6-1.4c-.1 0-.1-.1-.2-.1-.2.5-.5 1-.8 1.4-.1.2 0 .5.1.7l1.2 3.3c.2.4.1.7-.1.8l-2.1.6c-.1 0-.2 0-.3-.1-.2-.1-.3-.3-.4-.5l-1.9-3.1-.2-.3c-.6 0-1.1-.2-1.8-.4-.2 0-.3.1-.3.4l-.8 2.4c0 .3-.3.4-.6.2l-2.6-1.9c-.3-.2-.5-.6-.5-1l-.1-3v-.3c-.6-.6-1.1-1.2-1.6-1.9-.1-.1-.1-.1-.2-.1-.1-.1-.3-.1-.4-.1h-2.3c-.1 0-.2 0-.3-.1-.2-.1-.3-.3-.4-.5l-1.6-3.3c-.2-.4-.1-.7.1-.8l1.7-1.2.2-.1-.6-2.4c-.1-.3-.3-.5-.5-.7l-2.4-2.3c-.3-.2-.5-.7-.5-1l.3-2.7zm11.1 13.5c.2.1.3.2.5.3 1.8 1.1 3.4.4 3.7-1.6.3-2.2-1.1-5.2-3.2-6.7-.2-.1-.3-.2-.5-.3-1.8-1.1-3.4-.4-3.7 1.6-.3 2.3 1.1 5.2 3.2 6.7z"/></g><g><path class="st11" d="M158 99c-.3 0-.7.1-1.1.2-.7.2-1.4.4-2.1.7-1 .3-2 .7-3 1.1l-1.5.6c-1.3.5-2.5 1.1-3.8 1.7-.5.2-1 .5-1.5.8-1 .5-2 1.1-3 1.7-.3.2-.6.3-.9.5l-.9.6c-1.4.9-2.9 1.8-4.3 2.8-.2.1-.4.3-.6.4-1.4 1-2.9 2.1-4.3 3.2-.4.3-.8.6-1.1.9-.9.7-1.8 1.5-2.7 2.3-1.1 1-2 2.2-2.6 3.4l-2-1.1-4.7-2.7c0-.1.1-.2.1-.3.6-1.1 1.5-2.2 2.5-3.1 4.9-4.2 9.9-7.8 14.9-10.7 5-2.9 10-5.1 14.9-6.5.9-.3 1.6-.2 2.2.1l4.7 2.7h.1c.3.1.5.3.7.7z"/><path class="st2" d="m125.3 150.2-.7-.3-.8-.5-.2-.1-3.9-2.2c-.2-.1-.5-.2-.7-.4-1.3-.9-2.1-2.6-2.1-4.8V119c0-1 .3-2 .8-3.1l4.7 2.7 2 1.1c-.5 1-.8 2.1-.8 3.1v22.9c0 1.1.2 2.1.5 2.9.5.7.8 1.2 1.2 1.6z"/><path class="st12" d="m157.5 98.3-5.8 3.2v18.1c0 2.6-1 5.7-2.9 8.6l-13 20.3c-1.4 2.1-3.5 3.4-4.9 2.8l-6.8-2.8-.2.9c-1.3-.9-2.1-2.6-2.1-4.8v-22.9c0-1 .3-2 .8-3.1.6-1.3 1.5-2.5 2.6-3.4 4.9-4.2 9.9-7.8 14.9-10.7 5-2.9 10-5.1 14.9-6.5.4-.1.7-.2 1.1-.2.3 0 .6.1.9.2l.5.3z"/><path class="st13" d="M158.4 100.6v22.9c0 2.6-1 5.7-2.9 8.6l-13 20.3c-1.4 2.1-3.5 3.4-4.9 2.8l-12.3-5-.7-.3c-.3-.1-.6-.3-.8-.4 0 0-.1 0-.1-.1-.1-.1-.2-.1-.3-.2l-.1-.1-.1-.1-.1-.1c-.1-.1-.2-.2-.2-.3 0 0 0-.1-.1-.1 0-.1-.1-.1-.1-.2v-.1s0-.1-.1-.1c0 0 0-.1-.1-.1 0 0 0-.1-.1-.1 0-.1-.1-.2-.1-.2s0-.1-.1-.1c0-.1-.1-.2-.1-.3v-25.5c0-1 .3-2 .8-3.1 0-.1.1-.2.1-.3 0-.1.1-.1.1-.2s.1-.1.1-.2l.1-.1s0-.1.1-.1c0-.1.1-.1.1-.2s.1-.1.1-.2c.1-.1.1-.2.2-.3l.2-.2.2-.2.1-.1.3-.3c.1-.1.2-.2.3-.4l.3-.3.3-.3c4.9-4.2 9.9-7.8 14.9-10.7 5-2.9 10-5.1 14.9-6.5.4-.1.7-.2 1.1-.2.3 0 .6.1.9.2.1 0 .2.1.2.1h.1c.1 0 .2.1.2.2.2.2.4.4.5.6 0 .4.1.9.1 1.6z"/><path class="st14" d="M155.6 104.5V124c0 2.2-.9 4.9-2.5 7.3l-11 17.2c-1.2 1.8-3 2.9-4.2 2.4l-11-4.5c-.2-.1-.5-.2-.7-.4-1.1-.8-1.8-2.2-1.8-4.1v-19.4c0-.8.2-1.7.7-2.6.5-1.1 1.3-2.1 2.2-2.9 4.1-3.6 8.4-6.6 12.7-9.1 4.3-2.5 8.5-4.3 12.7-5.5.3-.1.6-.1.9-.1.3 0 .5 0 .8.1.7.2 1.2 1 1.2 2.1z"/><g><linearGradient id="SVGID_00000099655738208534883620000009132407563634442172_" gradientUnits="userSpaceOnUse" x1="128.531" y1="124.8838" x2="151.3895" y2="124.8838"><stop offset="0" style="stop-color:#dd2e5a"/><stop offset=".9836" style="stop-color:#e47b1a"/></linearGradient><path style="fill:url(#SVGID_00000099655738208534883620000009132407563634442172_)" d="M132 127.2c.5-.3 1-.4 1.4-.5v-.1c0-4.2 3-9.3 6.6-11.5 3-1.7 5.5-.9 6.3 1.6.2-.2.5-.3.7-.5 2.4-1.4 4.4-.3 4.4 2.5s-2 6.2-4.4 7.6c-1.2.7-13.6 7.9-15 8.7-1.9 1.1-3.4.2-3.4-2-.1-2.1 1.5-4.7 3.4-5.8z"/><path class="st18" d="m145.4 124.2 2.9 4-1.4.8v6.7l-3 1.8v-6.8l-1.4.8zM138.4 140.2l-2.9-4 1.4-.8v-6.8l3-1.7v6.8l1.4-.8z"/></g></g></svg>