<?xml version="1.0" encoding="UTF-8"?><svg xmlns="http://www.w3.org/2000/svg" viewBox="0 0 151.8 151.79"><defs><style>.d{fill:#fff;}.e{fill:#2e2e2e;}</style></defs><g id="a"/><g id="b"><g id="c"><g><path class="e" d="M150.84,62.82c-.62-.86-1.5-1.51-2.5-1.84l-9.45-3.15c-1.37-4.78-3.26-9.37-5.67-13.73l4.44-8.88c.48-.95,.64-2.02,.47-3.07-.17-1.05-.67-2.02-1.42-2.77l-14.31-14.31c-.75-.75-1.72-1.25-2.77-1.42-1.05-.17-2.12,0-3.07,.47l-8.9,4.45c-4.35-2.41-8.93-4.31-13.7-5.68l-3.15-9.44h0c-.34-1.01-.98-1.88-1.84-2.5s-1.89-.96-2.96-.96h-20.24c-1.06,0-2.1,.34-2.96,.96-.86,.62-1.51,1.5-1.84,2.5l-3.15,9.44c-4.79,1.37-9.38,3.26-13.73,5.67l-8.87-4.44c-.95-.47-2.02-.64-3.07-.47-1.05,.17-2.02,.67-2.77,1.42l-14.31,14.31c-.75,.75-1.25,1.72-1.42,2.77-.17,1.05,0,2.12,.47,3.07l4.45,8.9c-2.41,4.35-4.31,8.93-5.68,13.71l-9.44,3.15c-1.01,.34-1.88,.98-2.5,1.84-.62,.86-.95,1.9-.96,2.96v20.24c0,1.06,.34,2.09,.96,2.96,.62,.86,1.5,1.5,2.5,1.84l9.45,3.15c1.37,4.78,3.26,9.37,5.67,13.72l-4.45,8.89h0c-.48,.95-.64,2.02-.47,3.07,.17,1.05,.67,2.02,1.42,2.77l14.31,14.31c.75,.75,1.72,1.25,2.77,1.42,1.05,.17,2.12,0,3.07-.47l8.92-4.46c4.34,2.4,8.92,4.31,13.69,5.68l3.15,9.45c.34,1.01,.98,1.88,1.84,2.5,.86,.62,1.89,.95,2.96,.96h20.24c1.06,0,2.1-.33,2.96-.96s1.51-1.5,1.84-2.5l3.15-9.45c4.78-1.37,9.36-3.26,13.71-5.67l8.89,4.45c.95,.47,2.02,.64,3.07,.47,1.05-.17,2.02-.67,2.77-1.42l14.31-14.31c.75-.75,1.25-1.72,1.42-2.77,.17-1.05,0-2.12-.47-3.07l-4.46-8.92c2.41-4.34,4.31-8.92,5.68-13.69l9.45-3.15c1.01-.34,1.88-.98,2.5-1.84,.62-.86,.95-1.9,.96-2.96v-20.24c0-1.06-.34-2.1-.96-2.96Z"/><g><path class="d" d="M81.01,57.99h-2.56v-17.91c0-1.41-1.15-2.56-2.56-2.56s-2.56,1.15-2.56,2.56v17.91h-2.56c-2.82,0-5.12,2.29-5.12,5.12v10.23c0,2.82,2.29,5.12,5.12,5.12h2.56v33.25c0,1.41,1.15,2.56,2.56,2.56s2.56-1.15,2.56-2.56v-33.25h2.56c2.82,0,5.12-2.29,5.12-5.12v-10.23c0-2.82-2.3-5.12-5.12-5.12Zm-10.23,15.35v-10.23h10.23v10.23h-10.23Z"/><path class="d" d="M55.43,73.34h-2.56V40.08c0-1.41-1.15-2.56-2.56-2.56s-2.56,1.15-2.56,2.56v33.25h-2.56c-2.82,0-5.12,2.29-5.12,5.12v10.23c0,2.82,2.29,5.12,5.12,5.12h2.56v17.91c0,1.41,1.15,2.56,2.56,2.56s2.56-1.15,2.56-2.56v-17.91h2.56c2.82,0,5.12-2.29,5.12-5.12v-10.23c0-2.82-2.29-5.12-5.12-5.12Zm-10.23,15.35v-10.23h10.23v10.23h-10.23Z"/><path class="d" d="M106.59,73.34h-2.56V40.08c0-1.41-1.14-2.56-2.56-2.56s-2.56,1.15-2.56,2.56v33.25h-2.56c-2.82,0-5.12,2.29-5.12,5.12v10.23c0,2.82,2.3,5.12,5.12,5.12h2.56v17.91c0,1.41,1.14,2.56,2.56,2.56s2.56-1.15,2.56-2.56v-17.91h2.56c2.82,0,5.12-2.29,5.12-5.12v-10.23c0-2.82-2.3-5.12-5.12-5.12Zm-10.23,15.35v-10.23h10.23v10.23h-10.23Z"/></g></g></g></g></svg>